<svg xmlns="http://www.w3.org/2000/svg" xmlns:xlink="http://www.w3.org/1999/xlink" width="128" zoomAndPan="magnify" viewBox="0 0 96 95.999999" height="128" preserveAspectRatio="xMidYMid meet" version="1.0"><defs><clipPath id="bd9f3a955b"><path d="M 0 14 L 64 14 L 64 85.109375 L 0 85.109375 Z M 0 14 " clip-rule="nonzero"/></clipPath><clipPath id="cd2d4b66a6"><path d="M 57 10.859375 L 96 10.859375 L 96 54 L 57 54 Z M 57 10.859375 " clip-rule="nonzero"/></clipPath></defs><g clip-path="url(#bd9f3a955b)"><path fill="#a6a6a6" d="M 5.371094 48.1875 C 8.75 46.976562 12.082031 45.96875 15.25 44.582031 C 22.652344 41.328125 26.488281 35.109375 28.621094 27.667969 C 29.761719 23.667969 30.625 19.589844 31.625 15.546875 C 31.710938 15.191406 31.816406 14.832031 32.03125 14.058594 C 32.765625 17.261719 33.300781 20.0625 34.054688 22.8125 C 34.898438 25.867188 35.808594 28.917969 36.914062 31.882812 C 39.636719 39.1875 45.117188 43.652344 52.304688 46.140625 C 55.582031 47.273438 58.941406 48.167969 62.265625 49.164062 C 62.816406 49.328125 63.378906 49.453125 63.949219 49.929688 C 63.078125 50.152344 62.1875 50.328125 61.335938 50.617188 C 57.023438 52.089844 52.617188 53.328125 48.449219 55.132812 C 42.976562 57.496094 39.0625 61.71875 37.105469 67.328125 C 35.265625 72.589844 34.007812 78.0625 32.503906 83.449219 C 32.351562 84 32.242188 84.5625 31.875 85.132812 C 31.496094 83.410156 31.234375 81.65625 30.742188 79.96875 C 29.453125 75.550781 28.308594 71.066406 26.664062 66.777344 C 24.40625 60.886719 20.046875 56.789062 14.214844 54.464844 C 10.359375 52.921875 6.339844 51.820312 2.378906 50.53125 C 1.601562 50.277344 0.796875 50.105469 0.00390625 49.621094 C 1.757812 49.15625 3.5 48.679688 5.371094 48.1875 Z M 5.371094 48.1875 " fill-opacity="1" fill-rule="nonzero"/></g><g clip-path="url(#cd2d4b66a6)"><path fill="#a6a6a6" d="M 60.898438 31.308594 C 62.921875 30.582031 64.917969 29.984375 66.816406 29.148438 C 71.253906 27.203125 73.550781 23.472656 74.828125 19.015625 C 75.515625 16.625 76.03125 14.171875 76.632812 11.75 C 76.679688 11.539062 76.746094 11.316406 76.875 10.859375 C 77.308594 12.777344 77.628906 14.464844 78.085938 16.109375 C 78.589844 17.941406 79.140625 19.761719 79.800781 21.546875 C 81.4375 25.925781 84.710938 28.597656 89.019531 30.089844 C 90.988281 30.769531 92.992188 31.300781 94.988281 31.902344 C 95.316406 31.996094 95.65625 32.074219 95.996094 32.355469 C 95.472656 32.492188 94.941406 32.597656 94.425781 32.761719 C 91.851562 33.644531 89.207031 34.390625 86.707031 35.464844 C 83.421875 36.878906 81.078125 39.410156 79.914062 42.769531 C 78.820312 45.929688 78.066406 49.210938 77.152344 52.4375 C 77.066406 52.769531 77 53.105469 76.777344 53.445312 C 76.554688 52.410156 76.390625 51.363281 76.097656 50.355469 C 75.324219 47.710938 74.644531 45.019531 73.65625 42.449219 C 72.300781 38.925781 69.695312 36.464844 66.199219 35.078125 C 63.882812 34.160156 61.480469 33.488281 59.105469 32.722656 C 58.640625 32.570312 58.15625 32.464844 57.683594 32.183594 C 58.730469 31.882812 59.773438 31.601562 60.898438 31.308594 Z M 60.898438 31.308594 " fill-opacity="1" fill-rule="nonzero"/></g><path fill="#a6a6a6" d="M 55.570312 70.515625 C 56.480469 70.1875 57.382812 69.914062 58.234375 69.546875 C 60.230469 68.664062 61.265625 67 61.839844 64.984375 C 62.148438 63.910156 62.382812 62.804688 62.640625 61.71875 C 62.660156 61.621094 62.691406 61.523438 62.75 61.320312 C 62.941406 62.183594 63.089844 62.941406 63.292969 63.683594 C 63.515625 64.507812 63.765625 65.332031 64.066406 66.125 C 64.804688 68.09375 66.273438 69.292969 68.210938 69.972656 C 69.09375 70.28125 69.996094 70.515625 70.894531 70.785156 C 71.042969 70.835938 71.195312 70.863281 71.351562 70.988281 C 71.117188 71.046875 70.875 71.097656 70.644531 71.175781 C 69.480469 71.570312 68.300781 71.910156 67.175781 72.394531 C 65.703125 73.035156 64.648438 74.167969 64.125 75.679688 C 63.628906 77.101562 63.292969 78.574219 62.882812 80.027344 C 62.847656 80.171875 62.816406 80.328125 62.710938 80.484375 C 62.613281 80.019531 62.535156 79.542969 62.398438 79.089844 C 62.050781 77.898438 61.742188 76.6875 61.304688 75.535156 C 60.695312 73.945312 59.523438 72.839844 57.953125 72.21875 C 56.917969 71.804688 55.832031 71.503906 54.765625 71.164062 C 54.554688 71.097656 54.339844 71.046875 54.128906 70.921875 C 54.601562 70.765625 55.078125 70.640625 55.570312 70.515625 Z M 55.570312 70.515625 " fill-opacity="1" fill-rule="nonzero"/></svg>