<svg xmlns="http://www.w3.org/2000/svg" xmlns:xlink="http://www.w3.org/1999/xlink" width="128" zoomAndPan="magnify" viewBox="0 0 96 95.999999" height="128" preserveAspectRatio="xMidYMid meet" version="1.0"><defs><clipPath id="4471351bce"><path d="M 11.699219 0.0429688 L 84.300781 0.0429688 L 84.300781 84.351562 L 11.699219 84.351562 Z M 11.699219 0.0429688 " clip-rule="nonzero"/></clipPath><clipPath id="b1f263a6c4"><path d="M 37.199219 80 L 58.796875 80 L 58.796875 95.964844 L 37.199219 95.964844 Z M 37.199219 80 " clip-rule="nonzero"/></clipPath></defs><g clip-path="url(#4471351bce)"><path fill="#ff3131" d="M 75.347656 72.730469 C 71.519531 65.96875 71.46875 61.195312 71.390625 53.796875 C 71.34375 49.578125 71.289062 44.449219 70.4375 37.40625 C 69.503906 29.582031 66.136719 24.582031 62.265625 21.386719 C 58.359375 18.164062 53.90625 16.726562 50.894531 16.085938 L 49.308594 15.75 L 49.308594 4.039062 L 46.714844 4.039062 L 46.714844 15.75 L 45.121094 16.085938 C 42.101562 16.726562 37.648438 18.164062 33.742188 21.386719 C 29.867188 24.582031 26.5 29.582031 25.5625 37.40625 C 24.710938 44.449219 24.65625 49.578125 24.613281 53.792969 C 24.53125 61.195312 24.480469 65.96875 20.652344 72.730469 C 19.828125 74.171875 18.898438 75.476562 17.9375 76.644531 C 17.1875 77.550781 16.433594 78.367188 15.695312 79.09375 L 15.695312 80.164062 L 80.304688 80.164062 L 80.304688 79.09375 C 79.566406 78.367188 78.8125 77.550781 78.066406 76.644531 C 77.09375 75.46875 76.164062 74.164062 75.347656 72.738281 Z M 75.371094 53.765625 C 75.445312 60.527344 75.492188 64.890625 78.808594 70.757812 L 78.8125 70.757812 C 79.53125 72.011719 80.324219 73.128906 81.140625 74.117188 C 81.964844 75.117188 82.828125 76.011719 83.667969 76.796875 L 84.300781 77.390625 L 84.300781 84.160156 L 11.699219 84.160156 L 11.699219 77.390625 L 12.332031 76.796875 C 13.171875 76.011719 14.035156 75.117188 14.859375 74.117188 C 15.683594 73.117188 16.476562 72 17.183594 70.765625 C 20.511719 64.890625 20.558594 60.527344 20.628906 53.761719 C 20.675781 49.394531 20.734375 44.082031 21.597656 36.9375 C 22.675781 27.914062 26.640625 22.082031 31.210938 18.3125 C 35.09375 15.113281 39.390625 13.4375 42.714844 12.5625 L 42.714844 0.0429688 L 53.304688 0.0429688 L 53.304688 12.5625 C 56.621094 13.433594 60.914062 15.109375 64.792969 18.3125 C 69.363281 22.082031 73.324219 27.914062 74.402344 36.9375 C 75.265625 44.082031 75.324219 49.394531 75.371094 53.765625 " fill-opacity="1" fill-rule="nonzero"/></g><g clip-path="url(#b1f263a6c4)"><path fill="#ff3131" d="M 58.628906 85.320312 C 58.628906 88.257812 57.445312 90.917969 55.523438 92.84375 C 53.597656 94.773438 50.945312 95.964844 48.007812 95.964844 C 45.074219 95.964844 42.414062 94.773438 40.484375 92.84375 C 38.558594 90.914062 37.367188 88.257812 37.367188 85.320312 C 37.367188 84.664062 37.433594 84 37.558594 83.34375 C 37.683594 82.679688 37.867188 82.039062 38.105469 81.4375 L 38.605469 80.164062 L 57.398438 80.164062 L 57.898438 81.4375 C 58.132812 82.042969 58.316406 82.679688 58.441406 83.34375 C 58.566406 84.003906 58.628906 84.664062 58.628906 85.320312 Z M 52.695312 90.035156 C 53.894531 88.835938 54.632812 87.167969 54.632812 85.320312 C 54.632812 84.910156 54.601562 84.523438 54.539062 84.160156 L 41.460938 84.160156 C 41.398438 84.523438 41.367188 84.910156 41.367188 85.320312 C 41.367188 87.164062 42.109375 88.832031 43.308594 90.03125 C 44.507812 91.230469 46.167969 91.96875 48.007812 91.96875 C 49.847656 91.96875 51.503906 91.230469 52.695312 90.035156 " fill-opacity="1" fill-rule="nonzero"/></g></svg>