<svg xmlns="http://www.w3.org/2000/svg" xmlns:xlink="http://www.w3.org/1999/xlink" width="128" zoomAndPan="magnify" viewBox="0 0 96 95.999999" height="128" preserveAspectRatio="xMidYMid meet" version="1.0"><path fill="#ff3131" d="M 48 92.175781 C 23.640625 92.175781 3.824219 72.359375 3.824219 48 C 3.824219 23.640625 23.640625 3.824219 48 3.824219 C 72.359375 3.824219 92.175781 23.640625 92.175781 48 C 92.175781 72.359375 72.359375 92.175781 48 92.175781 Z M 92.226562 29.316406 C 89.808594 23.597656 86.347656 18.464844 81.941406 14.058594 C 77.535156 9.652344 72.402344 6.191406 66.683594 3.773438 C 60.765625 1.269531 54.480469 0 48 0 C 41.519531 0 35.234375 1.269531 29.316406 3.773438 C 23.597656 6.191406 18.464844 9.652344 14.058594 14.058594 C 9.652344 18.464844 6.191406 23.597656 3.773438 29.316406 C 1.269531 35.234375 0 41.519531 0 48 C 0 54.480469 1.269531 60.765625 3.773438 66.683594 C 6.191406 72.402344 9.652344 77.535156 14.058594 81.941406 C 18.464844 86.347656 23.597656 89.808594 29.316406 92.226562 C 35.234375 94.730469 41.519531 96 48 96 C 54.480469 96 60.765625 94.730469 66.683594 92.226562 C 72.402344 89.808594 77.535156 86.347656 81.941406 81.941406 C 86.347656 77.535156 89.808594 72.402344 92.226562 66.683594 C 94.730469 60.765625 96 54.480469 96 48 C 96 41.519531 94.730469 35.234375 92.226562 29.316406 " fill-opacity="1" fill-rule="nonzero"/><path fill="#ff3131" d="M 71.003906 64.203125 L 49.914062 47.089844 L 49.914062 24.386719 C 49.914062 23.332031 49.054688 22.476562 48 22.476562 C 46.945312 22.476562 46.085938 23.332031 46.085938 24.386719 L 46.085938 48 C 46.085938 48.578125 46.347656 49.121094 46.792969 49.484375 L 68.597656 67.175781 C 68.949219 67.460938 69.375 67.601562 69.800781 67.601562 C 70.355469 67.601562 70.90625 67.359375 71.285156 66.894531 C 71.953125 66.074219 71.824219 64.871094 71.003906 64.203125 " fill-opacity="1" fill-rule="nonzero"/></svg>