<svg xmlns="http://www.w3.org/2000/svg" xmlns:xlink="http://www.w3.org/1999/xlink" width="128" zoomAndPan="magnify" viewBox="0 0 96 95.999999" height="128" preserveAspectRatio="xMidYMid meet" version="1.0"><path fill="#a6a6a6" d="M 94.804688 33.820312 C 94.054688 32.847656 93.082031 32.324219 92.035156 32.324219 L 66.59375 32.324219 C 64.125 32.324219 63.003906 34.644531 62.554688 35.46875 L 59.636719 41.304688 C 59.484375 41.304688 59.261719 41.304688 59.113281 41.304688 C 58.886719 41.304688 58.738281 41.304688 58.511719 41.304688 L 50.65625 41.304688 L 48.710938 44.296875 L 58.585938 44.296875 C 58.738281 44.296875 58.886719 44.296875 59.035156 44.296875 C 59.859375 44.371094 61.058594 44.371094 61.953125 43.324219 L 62.105469 43.171875 L 65.320312 36.738281 C 65.546875 36.363281 66.070312 35.242188 66.667969 35.242188 L 92.109375 35.242188 C 92.183594 35.242188 92.332031 35.316406 92.484375 35.542969 C 92.78125 35.914062 92.933594 36.515625 92.855469 36.886719 L 79.988281 82.757812 C 79.835938 83.429688 79.238281 83.878906 78.566406 83.878906 L 6.136719 83.878906 L 6.136719 83.128906 L 4.863281 83.128906 C 4.640625 82.757812 4.5625 82.308594 4.714844 81.933594 L 15.9375 45.867188 C 16.164062 44.96875 16.910156 44.222656 17.359375 44.222656 L 24.617188 44.222656 L 22.671875 41.226562 L 17.359375 41.226562 C 15.265625 41.226562 13.542969 43.171875 13.019531 45.042969 L 2.992188 77.367188 L 2.992188 23.34375 C 2.992188 22.523438 3.667969 21.847656 4.488281 21.847656 L 25.964844 21.847656 L 25.964844 18.855469 L 4.488281 18.855469 C 2.019531 18.855469 0 20.875 0 23.34375 L 0 81.707031 C 0 83.804688 1.496094 85.597656 3.515625 86.046875 C 4.265625 86.570312 5.164062 86.871094 6.136719 86.871094 L 78.492188 86.871094 C 80.511719 86.871094 82.308594 85.523438 82.832031 83.578125 L 95.699219 37.710938 C 96 36.515625 95.625 34.941406 94.804688 33.820312 Z M 94.804688 33.820312 " fill-opacity="1" fill-rule="nonzero"/><path fill="#a6a6a6" d="M 44.148438 11.671875 C 43.996094 10.25 42.800781 9.128906 41.378906 9.128906 L 32.175781 9.128906 C 30.527344 9.128906 29.179688 10.476562 29.179688 12.121094 L 29.179688 30.828125 L 24.394531 30.828125 C 23.421875 30.828125 22.523438 31.351562 22.074219 32.25 C 21.625 33.148438 21.625 34.121094 22.148438 34.941406 L 33.371094 52.226562 C 34.121094 53.351562 35.316406 54.023438 36.664062 54.023438 C 38.011719 54.023438 39.28125 53.351562 39.957031 52.226562 L 51.105469 35.019531 C 51.628906 34.195312 51.703125 33.148438 51.179688 32.25 C 50.65625 31.351562 49.90625 30.828125 48.859375 30.828125 L 44.148438 30.828125 L 44.148438 11.824219 C 44.148438 11.824219 44.148438 11.746094 44.148438 11.671875 Z M 48.335938 33.820312 L 37.488281 50.582031 C 37.1875 50.957031 36.8125 51.03125 36.664062 51.03125 C 36.515625 51.03125 36.140625 50.957031 35.839844 50.582031 L 24.992188 33.820312 L 30.679688 33.820312 C 31.5 33.820312 32.175781 33.148438 32.175781 32.324219 L 32.175781 12.121094 L 41.152344 12.121094 L 41.152344 32.324219 C 41.152344 33.148438 41.828125 33.820312 42.648438 33.820312 Z M 48.335938 33.820312 " fill-opacity="1" fill-rule="nonzero"/><path fill="#a6a6a6" d="M 82.308594 29.332031 L 82.308594 23.34375 C 82.308594 20.875 80.285156 18.855469 77.816406 18.855469 L 47.066406 18.855469 L 47.066406 21.847656 L 77.816406 21.847656 C 78.640625 21.847656 79.3125 22.523438 79.3125 23.34375 L 79.3125 29.332031 Z M 82.308594 29.332031 " fill-opacity="1" fill-rule="nonzero"/></svg>