<svg xmlns="http://www.w3.org/2000/svg" xmlns:xlink="http://www.w3.org/1999/xlink" width="128" zoomAndPan="magnify" viewBox="0 0 96 95.999999" height="128" preserveAspectRatio="xMidYMid meet" version="1.0"><path fill="#a6a6a6" d="M 48 3.859375 C 72.347656 3.859375 92.15625 23.660156 92.15625 48 C 92.15625 72.339844 72.347656 92.140625 48 92.140625 C 23.652344 92.140625 3.84375 72.339844 3.84375 48 C 3.84375 23.660156 23.652344 3.859375 48 3.859375 Z M 48 96 C 60.820312 96 72.871094 91.007812 81.9375 81.945312 C 91.007812 72.875 96 60.820312 96 48 C 96 35.175781 91.007812 23.121094 81.9375 14.054688 C 72.871094 4.992188 60.820312 0 48 0 C 35.179688 0 23.128906 4.992188 14.0625 14.054688 C 4.992188 23.121094 0 35.175781 0 48 C 0 60.820312 4.992188 72.875 14.0625 81.945312 C 23.128906 91.007812 35.179688 96 48 96 " fill-opacity="1" fill-rule="nonzero"/><path fill="#a6a6a6" d="M 26.179688 42.464844 L 69.820312 42.464844 L 69.820312 69.914062 C 69.820312 70.113281 69.65625 70.277344 69.460938 70.277344 L 26.539062 70.277344 C 26.34375 70.277344 26.179688 70.113281 26.179688 69.914062 Z M 26.179688 30.652344 C 26.179688 30.453125 26.34375 30.292969 26.539062 30.292969 L 32.539062 30.292969 L 32.539062 32.121094 C 32.539062 32.976562 33.234375 33.671875 34.085938 33.671875 L 38.25 33.671875 C 39.101562 33.671875 39.796875 32.976562 39.796875 32.121094 L 39.796875 30.292969 L 56.203125 30.292969 L 56.203125 32.121094 C 56.203125 32.976562 56.898438 33.671875 57.75 33.671875 L 61.914062 33.671875 C 62.765625 33.671875 63.460938 32.976562 63.460938 32.121094 L 63.460938 30.292969 L 69.460938 30.292969 C 69.65625 30.292969 69.820312 30.453125 69.820312 30.652344 L 69.820312 38.621094 L 26.179688 38.621094 Z M 35.042969 25.054688 L 37.292969 25.054688 L 37.292969 31.167969 L 35.042969 31.167969 Z M 58.707031 25.054688 L 60.957031 25.054688 L 60.957031 31.167969 L 58.707031 31.167969 Z M 26.539062 74.121094 L 69.460938 74.121094 C 71.777344 74.121094 73.664062 72.234375 73.664062 69.914062 L 73.664062 30.652344 C 73.664062 28.332031 71.777344 26.445312 69.460938 26.445312 L 63.460938 26.445312 L 63.460938 24.097656 C 63.460938 23.242188 62.765625 22.550781 61.914062 22.550781 L 57.75 22.550781 C 56.898438 22.550781 56.203125 23.242188 56.203125 24.097656 L 56.203125 26.445312 L 39.796875 26.445312 L 39.796875 24.097656 C 39.796875 23.242188 39.101562 22.550781 38.25 22.550781 L 34.085938 22.550781 C 33.234375 22.550781 32.539062 23.242188 32.539062 24.097656 L 32.539062 26.445312 L 26.539062 26.445312 C 24.222656 26.445312 22.335938 28.332031 22.335938 30.652344 L 22.335938 69.914062 C 22.335938 72.234375 24.222656 74.121094 26.539062 74.121094 " fill-opacity="1" fill-rule="nonzero"/><path fill="#a6a6a6" d="M 38.6875 59.03125 L 34.183594 59.03125 L 34.183594 63.1875 L 38.6875 63.1875 L 38.6875 59.03125 " fill-opacity="1" fill-rule="nonzero"/><path fill="#a6a6a6" d="M 50.253906 59.03125 L 45.746094 59.03125 L 45.746094 63.1875 L 50.253906 63.1875 L 50.253906 59.03125 " fill-opacity="1" fill-rule="nonzero"/><path fill="#a6a6a6" d="M 61.816406 59.03125 L 57.3125 59.03125 L 57.3125 63.1875 L 61.816406 63.1875 L 61.816406 59.03125 " fill-opacity="1" fill-rule="nonzero"/><path fill="#a6a6a6" d="M 38.6875 49.292969 L 34.183594 49.292969 L 34.183594 53.445312 L 38.6875 53.445312 L 38.6875 49.292969 " fill-opacity="1" fill-rule="nonzero"/><path fill="#a6a6a6" d="M 50.253906 49.292969 L 45.746094 49.292969 L 45.746094 53.445312 L 50.253906 53.445312 L 50.253906 49.292969 " fill-opacity="1" fill-rule="nonzero"/><path fill="#a6a6a6" d="M 61.816406 49.292969 L 57.3125 49.292969 L 57.3125 53.445312 L 61.816406 53.445312 L 61.816406 49.292969 " fill-opacity="1" fill-rule="nonzero"/></svg>