<svg xmlns="http://www.w3.org/2000/svg" xmlns:xlink="http://www.w3.org/1999/xlink" width="128" zoomAndPan="magnify" viewBox="0 0 96 95.999999" height="128" preserveAspectRatio="xMidYMid meet" version="1.0"><defs><clipPath id="13b1a41832"><path d="M 27 12.066406 L 44 12.066406 L 44 28 L 27 28 Z M 27 12.066406 " clip-rule="nonzero"/></clipPath><clipPath id="2b09b82f48"><path d="M 52 12.066406 L 68 12.066406 L 68 28 L 52 28 Z M 52 12.066406 " clip-rule="nonzero"/></clipPath><clipPath id="455356f26c"><path d="M 8.941406 51 L 37 51 L 37 75 L 8.941406 75 Z M 8.941406 51 " clip-rule="nonzero"/></clipPath><clipPath id="bd6862d2e6"><path d="M 59 51 L 86.941406 51 L 86.941406 75 L 59 75 Z M 59 51 " clip-rule="nonzero"/></clipPath></defs><g clip-path="url(#13b1a41832)"><path fill="#05387d" d="M 43.308594 19.878906 C 43.308594 20.390625 43.257812 20.898438 43.160156 21.402344 C 43.058594 21.90625 42.910156 22.394531 42.714844 22.867188 C 42.519531 23.34375 42.277344 23.792969 41.992188 24.21875 C 41.707031 24.644531 41.382812 25.039062 41.023438 25.402344 C 40.660156 25.765625 40.265625 26.089844 39.839844 26.375 C 39.410156 26.660156 38.960938 26.898438 38.488281 27.09375 C 38.015625 27.292969 37.527344 27.441406 37.023438 27.539062 C 36.519531 27.640625 36.011719 27.691406 35.5 27.691406 C 34.984375 27.691406 34.476562 27.640625 33.976562 27.539062 C 33.472656 27.441406 32.984375 27.292969 32.507812 27.09375 C 32.035156 26.898438 31.585938 26.660156 31.160156 26.375 C 30.734375 26.089844 30.339844 25.765625 29.976562 25.402344 C 29.613281 25.039062 29.289062 24.644531 29.003906 24.21875 C 28.71875 23.792969 28.480469 23.34375 28.28125 22.867188 C 28.085938 22.394531 27.9375 21.90625 27.839844 21.402344 C 27.738281 20.898438 27.6875 20.390625 27.6875 19.878906 C 27.6875 19.367188 27.738281 18.859375 27.839844 18.355469 C 27.9375 17.851562 28.085938 17.363281 28.28125 16.890625 C 28.480469 16.417969 28.71875 15.964844 29.003906 15.539062 C 29.289062 15.113281 29.613281 14.71875 29.976562 14.355469 C 30.339844 13.992188 30.734375 13.667969 31.160156 13.386719 C 31.585938 13.101562 32.035156 12.859375 32.507812 12.664062 C 32.984375 12.46875 33.472656 12.320312 33.976562 12.21875 C 34.476562 12.117188 34.984375 12.070312 35.5 12.070312 C 36.011719 12.070312 36.519531 12.117188 37.023438 12.21875 C 37.527344 12.320312 38.015625 12.46875 38.488281 12.664062 C 38.960938 12.859375 39.410156 13.101562 39.839844 13.386719 C 40.265625 13.667969 40.660156 13.992188 41.023438 14.355469 C 41.382812 14.71875 41.707031 15.113281 41.992188 15.539062 C 42.277344 15.964844 42.519531 16.417969 42.714844 16.890625 C 42.910156 17.363281 43.058594 17.851562 43.160156 18.355469 C 43.257812 18.859375 43.308594 19.367188 43.308594 19.878906 Z M 43.308594 19.878906 " fill-opacity="1" fill-rule="nonzero"/></g><g clip-path="url(#2b09b82f48)"><path fill="#05387d" d="M 67.992188 19.878906 C 67.992188 20.390625 67.941406 20.898438 67.839844 21.402344 C 67.742188 21.90625 67.59375 22.394531 67.394531 22.867188 C 67.199219 23.34375 66.960938 23.792969 66.675781 24.21875 C 66.390625 24.644531 66.066406 25.039062 65.703125 25.402344 C 65.339844 25.765625 64.945312 26.089844 64.519531 26.375 C 64.09375 26.660156 63.644531 26.898438 63.167969 27.09375 C 62.695312 27.292969 62.207031 27.441406 61.703125 27.539062 C 61.199219 27.640625 60.691406 27.691406 60.179688 27.691406 C 59.667969 27.691406 59.160156 27.640625 58.65625 27.539062 C 58.152344 27.441406 57.664062 27.292969 57.191406 27.09375 C 56.71875 26.898438 56.265625 26.660156 55.839844 26.375 C 55.414062 26.089844 55.019531 25.765625 54.65625 25.402344 C 54.292969 25.039062 53.972656 24.644531 53.6875 24.21875 C 53.402344 23.792969 53.160156 23.34375 52.964844 22.867188 C 52.769531 22.394531 52.621094 21.90625 52.519531 21.402344 C 52.417969 20.898438 52.371094 20.390625 52.371094 19.878906 C 52.371094 19.367188 52.417969 18.859375 52.519531 18.355469 C 52.621094 17.851562 52.769531 17.363281 52.964844 16.890625 C 53.160156 16.417969 53.402344 15.964844 53.6875 15.539062 C 53.972656 15.113281 54.292969 14.71875 54.65625 14.355469 C 55.019531 13.992188 55.414062 13.667969 55.839844 13.386719 C 56.265625 13.101562 56.71875 12.859375 57.191406 12.664062 C 57.664062 12.46875 58.152344 12.320312 58.65625 12.21875 C 59.160156 12.117188 59.667969 12.070312 60.179688 12.070312 C 60.691406 12.070312 61.199219 12.117188 61.703125 12.21875 C 62.207031 12.320312 62.695312 12.46875 63.167969 12.664062 C 63.644531 12.859375 64.09375 13.101562 64.519531 13.386719 C 64.945312 13.667969 65.339844 13.992188 65.703125 14.355469 C 66.066406 14.71875 66.390625 15.113281 66.675781 15.539062 C 66.960938 15.964844 67.199219 16.417969 67.394531 16.890625 C 67.59375 17.363281 67.742188 17.851562 67.839844 18.355469 C 67.941406 18.859375 67.992188 19.367188 67.992188 19.878906 Z M 67.992188 19.878906 " fill-opacity="1" fill-rule="nonzero"/></g><path fill="#05387d" d="M 57.410156 49.601562 C 57.410156 50.21875 57.351562 50.828125 57.230469 51.429688 C 57.109375 52.035156 56.933594 52.621094 56.695312 53.1875 C 56.460938 53.757812 56.171875 54.296875 55.832031 54.808594 C 55.488281 55.320312 55.101562 55.792969 54.664062 56.230469 C 54.230469 56.664062 53.757812 57.050781 53.246094 57.394531 C 52.734375 57.738281 52.191406 58.023438 51.625 58.261719 C 51.054688 58.496094 50.46875 58.675781 49.867188 58.792969 C 49.261719 58.914062 48.652344 58.972656 48.039062 58.972656 C 47.421875 58.972656 46.8125 58.914062 46.210938 58.792969 C 45.605469 58.675781 45.019531 58.496094 44.449219 58.261719 C 43.882812 58.023438 43.34375 57.738281 42.832031 57.394531 C 42.320312 57.050781 41.84375 56.664062 41.410156 56.230469 C 40.976562 55.792969 40.585938 55.320312 40.246094 54.808594 C 39.902344 54.296875 39.613281 53.757812 39.378906 53.1875 C 39.144531 52.621094 38.964844 52.035156 38.84375 51.429688 C 38.726562 50.828125 38.664062 50.21875 38.664062 49.601562 C 38.664062 48.984375 38.726562 48.375 38.84375 47.773438 C 38.964844 47.167969 39.144531 46.582031 39.378906 46.015625 C 39.613281 45.445312 39.902344 44.90625 40.246094 44.394531 C 40.585938 43.882812 40.976562 43.410156 41.410156 42.972656 C 41.84375 42.539062 42.320312 42.148438 42.832031 41.808594 C 43.34375 41.464844 43.882812 41.175781 44.449219 40.941406 C 45.019531 40.707031 45.605469 40.527344 46.210938 40.410156 C 46.8125 40.289062 47.421875 40.230469 48.039062 40.230469 C 48.652344 40.230469 49.261719 40.289062 49.867188 40.410156 C 50.46875 40.527344 51.054688 40.707031 51.625 40.941406 C 52.191406 41.175781 52.734375 41.464844 53.246094 41.808594 C 53.757812 42.148438 54.230469 42.539062 54.664062 42.972656 C 55.101562 43.410156 55.488281 43.882812 55.832031 44.394531 C 56.171875 44.90625 56.460938 45.445312 56.695312 46.015625 C 56.933594 46.582031 57.109375 47.167969 57.230469 47.773438 C 57.351562 48.375 57.410156 48.984375 57.410156 49.601562 Z M 57.410156 49.601562 " fill-opacity="1" fill-rule="nonzero"/><path fill="#05387d" d="M 48.039062 83.96875 C 38.421875 83.96875 34.964844 81.585938 34.605469 81.3125 C 34.210938 81.019531 33.980469 80.554688 33.980469 80.0625 L 33.980469 74.59375 C 33.980469 66.84375 40.285156 60.535156 48.039062 60.535156 C 55.789062 60.535156 62.097656 66.84375 62.097656 74.59375 L 62.097656 80.0625 C 62.097656 80.554688 61.867188 81.015625 61.472656 81.3125 C 61.109375 81.585938 57.652344 83.96875 48.039062 83.96875 Z M 48.039062 83.96875 " fill-opacity="1" fill-rule="nonzero"/><g clip-path="url(#455356f26c)"><path fill="#05387d" d="M 36.628906 61.78125 C 35.101562 55.671875 29.578125 51.121094 23 51.121094 C 15.25 51.121094 8.941406 57.425781 8.941406 65.179688 L 8.941406 70.648438 C 8.941406 71.136719 9.175781 71.601562 9.566406 71.898438 C 9.929688 72.167969 13.386719 74.554688 23 74.554688 C 26.332031 74.554688 28.910156 74.265625 30.890625 73.878906 C 31.089844 69.074219 33.261719 64.78125 36.628906 61.78125 Z M 36.628906 61.78125 " fill-opacity="1" fill-rule="nonzero"/></g><g clip-path="url(#bd6862d2e6)"><path fill="#05387d" d="M 72.988281 51.121094 C 66.433594 51.121094 60.925781 55.640625 59.378906 61.71875 C 62.789062 64.726562 64.988281 69.050781 65.1875 73.894531 C 67.15625 74.273438 69.707031 74.554688 72.988281 74.554688 C 82.605469 74.554688 86.0625 72.167969 86.421875 71.898438 C 86.816406 71.605469 87.046875 71.140625 87.046875 70.648438 L 87.046875 65.179688 C 87.046875 57.425781 80.742188 51.121094 72.988281 51.121094 Z M 72.988281 51.121094 " fill-opacity="1" fill-rule="nonzero"/></g><path fill="#05387d" d="M 82.402344 40.230469 C 82.402344 40.84375 82.34375 41.453125 82.222656 42.058594 C 82.105469 42.660156 81.925781 43.246094 81.691406 43.816406 C 81.457031 44.382812 81.167969 44.925781 80.824219 45.4375 C 80.484375 45.949219 80.09375 46.421875 79.660156 46.855469 C 79.222656 47.292969 78.75 47.679688 78.238281 48.023438 C 77.726562 48.363281 77.1875 48.652344 76.617188 48.886719 C 76.050781 49.125 75.464844 49.300781 74.859375 49.421875 C 74.257812 49.542969 73.648438 49.601562 73.03125 49.601562 C 72.417969 49.601562 71.804688 49.542969 71.203125 49.421875 C 70.597656 49.300781 70.011719 49.125 69.445312 48.886719 C 68.875 48.652344 68.335938 48.363281 67.824219 48.023438 C 67.3125 47.679688 66.839844 47.292969 66.402344 46.855469 C 65.96875 46.421875 65.582031 45.949219 65.238281 45.4375 C 64.898438 44.925781 64.609375 44.382812 64.371094 43.816406 C 64.136719 43.246094 63.960938 42.660156 63.839844 42.058594 C 63.71875 41.453125 63.660156 40.84375 63.660156 40.230469 C 63.660156 39.613281 63.71875 39.003906 63.839844 38.398438 C 63.960938 37.796875 64.136719 37.210938 64.371094 36.640625 C 64.609375 36.074219 64.898438 35.535156 65.238281 35.023438 C 65.582031 34.511719 65.96875 34.035156 66.402344 33.601562 C 66.839844 33.167969 67.3125 32.777344 67.824219 32.4375 C 68.335938 32.09375 68.875 31.804688 69.445312 31.570312 C 70.011719 31.335938 70.597656 31.15625 71.203125 31.035156 C 71.804688 30.917969 72.417969 30.855469 73.03125 30.855469 C 73.648438 30.855469 74.257812 30.917969 74.859375 31.035156 C 75.464844 31.15625 76.050781 31.335938 76.617188 31.570312 C 77.1875 31.804688 77.726562 32.09375 78.238281 32.4375 C 78.75 32.777344 79.222656 33.167969 79.660156 33.601562 C 80.09375 34.035156 80.484375 34.511719 80.824219 35.023438 C 81.167969 35.535156 81.457031 36.074219 81.691406 36.640625 C 81.925781 37.210938 82.105469 37.796875 82.222656 38.398438 C 82.34375 39.003906 82.402344 39.613281 82.402344 40.230469 Z M 82.402344 40.230469 " fill-opacity="1" fill-rule="nonzero"/><path fill="#05387d" d="M 32.417969 40.230469 C 32.417969 40.84375 32.355469 41.453125 32.238281 42.058594 C 32.117188 42.660156 31.9375 43.246094 31.703125 43.816406 C 31.46875 44.382812 31.179688 44.925781 30.835938 45.4375 C 30.496094 45.949219 30.105469 46.421875 29.671875 46.855469 C 29.234375 47.292969 28.761719 47.679688 28.25 48.023438 C 27.738281 48.363281 27.199219 48.652344 26.628906 48.886719 C 26.0625 49.125 25.476562 49.300781 24.871094 49.421875 C 24.269531 49.542969 23.660156 49.601562 23.042969 49.601562 C 22.429688 49.601562 21.820312 49.542969 21.214844 49.421875 C 20.613281 49.300781 20.027344 49.125 19.457031 48.886719 C 18.890625 48.652344 18.347656 48.363281 17.835938 48.023438 C 17.324219 47.679688 16.851562 47.292969 16.417969 46.855469 C 15.980469 46.421875 15.59375 45.949219 15.25 45.4375 C 14.910156 44.925781 14.621094 44.382812 14.386719 43.816406 C 14.148438 43.246094 13.972656 42.660156 13.851562 42.058594 C 13.730469 41.453125 13.671875 40.84375 13.671875 40.230469 C 13.671875 39.613281 13.730469 39.003906 13.851562 38.398438 C 13.972656 37.796875 14.148438 37.210938 14.386719 36.640625 C 14.621094 36.074219 14.910156 35.535156 15.25 35.023438 C 15.59375 34.511719 15.980469 34.035156 16.417969 33.601562 C 16.851562 33.167969 17.324219 32.777344 17.835938 32.4375 C 18.347656 32.09375 18.890625 31.804688 19.457031 31.570312 C 20.027344 31.335938 20.613281 31.15625 21.214844 31.035156 C 21.820312 30.917969 22.429688 30.855469 23.042969 30.855469 C 23.660156 30.855469 24.269531 30.917969 24.871094 31.035156 C 25.476562 31.15625 26.0625 31.335938 26.628906 31.570312 C 27.199219 31.804688 27.738281 32.09375 28.25 32.4375 C 28.761719 32.777344 29.234375 33.167969 29.671875 33.601562 C 30.105469 34.035156 30.496094 34.511719 30.835938 35.023438 C 31.179688 35.535156 31.46875 36.074219 31.703125 36.640625 C 31.9375 37.210938 32.117188 37.796875 32.238281 38.398438 C 32.355469 39.003906 32.417969 39.613281 32.417969 40.230469 Z M 32.417969 40.230469 " fill-opacity="1" fill-rule="nonzero"/><path fill="#05387d" d="M 60.535156 49.601562 C 60.535156 51.351562 60.171875 53.019531 59.519531 54.53125 C 61.039062 52.601562 62.964844 51.03125 65.140625 49.90625 C 62.332031 47.613281 60.535156 44.128906 60.535156 40.230469 C 60.535156 36.304688 62.355469 32.804688 65.191406 30.511719 C 63.699219 29.714844 62.011719 29.25 60.179688 29.25 C 55.121094 29.25 50.941406 32.601562 49.667969 37.222656 C 55.789062 38.027344 60.535156 43.265625 60.535156 49.601562 Z M 60.535156 49.601562 " fill-opacity="1" fill-rule="nonzero"/><path fill="#05387d" d="M 35.539062 40.230469 C 35.539062 44.140625 33.730469 47.640625 30.902344 49.933594 C 33.175781 51.113281 35.164062 52.789062 36.710938 54.847656 C 35.96875 53.25 35.539062 51.476562 35.539062 49.601562 C 35.539062 43.394531 40.09375 38.246094 46.027344 37.28125 C 44.773438 32.628906 40.582031 29.25 35.5 29.25 C 33.761719 29.25 32.152344 29.664062 30.714844 30.386719 C 33.644531 32.675781 35.539062 36.230469 35.539062 40.230469 Z M 35.539062 40.230469 " fill-opacity="1" fill-rule="nonzero"/><path fill="#05387d" d="M 48 0 C 21.515625 0 0 21.515625 0 48 C 0 74.484375 21.515625 96 48 96 C 74.484375 96 96 74.484375 96 48 C 96 21.515625 74.484375 0 48 0 Z M 48 2.085938 C 73.382812 2.085938 93.914062 22.617188 93.914062 48 C 93.914062 73.382812 73.382812 93.914062 48 93.914062 C 22.617188 93.914062 2.085938 73.382812 2.085938 48 C 2.085938 22.617188 22.617188 2.085938 48 2.085938 Z M 48 2.085938 " fill-opacity="1" fill-rule="nonzero"/></svg>