<svg xmlns="http://www.w3.org/2000/svg" xmlns:xlink="http://www.w3.org/1999/xlink" width="128" zoomAndPan="magnify" viewBox="0 0 96 95.999999" height="128" preserveAspectRatio="xMidYMid meet" version="1.0"><defs><clipPath id="33ef6c5ff3"><path d="M 23.425781 9.601562 L 45 9.601562 L 45 31 L 23.425781 31 Z M 23.425781 9.601562 " clip-rule="nonzero"/></clipPath><clipPath id="c3b5e1a29b"><path d="M 23.425781 37 L 45 37 L 45 59 L 23.425781 59 Z M 23.425781 37 " clip-rule="nonzero"/></clipPath><clipPath id="dfd272efbe"><path d="M 23.425781 65 L 45 65 L 45 86.101562 L 23.425781 86.101562 Z M 23.425781 65 " clip-rule="nonzero"/></clipPath><clipPath id="5ede710dd9"><path d="M 51 65 L 72.925781 65 L 72.925781 86.101562 L 51 86.101562 Z M 51 65 " clip-rule="nonzero"/></clipPath><clipPath id="69e9bc1dde"><path d="M 51 37 L 72.925781 37 L 72.925781 59 L 51 59 Z M 51 37 " clip-rule="nonzero"/></clipPath><clipPath id="5f845c30b6"><path d="M 51 9.601562 L 72.925781 9.601562 L 72.925781 31 L 51 31 Z M 51 9.601562 " clip-rule="nonzero"/></clipPath></defs><g clip-path="url(#33ef6c5ff3)"><path fill="#05387d" d="M 44.621094 20.140625 C 44.621094 20.832031 44.550781 21.519531 44.417969 22.199219 C 44.28125 22.878906 44.082031 23.539062 43.816406 24.175781 C 43.550781 24.816406 43.226562 25.425781 42.839844 26 C 42.457031 26.578125 42.019531 27.109375 41.53125 27.601562 C 41.039062 28.089844 40.507812 28.527344 39.929688 28.910156 C 39.355469 29.296875 38.746094 29.621094 38.105469 29.886719 C 37.46875 30.152344 36.808594 30.351562 36.128906 30.488281 C 35.449219 30.621094 34.761719 30.691406 34.070312 30.691406 C 33.378906 30.691406 32.691406 30.621094 32.011719 30.488281 C 31.332031 30.351562 30.671875 30.152344 30.03125 29.886719 C 29.394531 29.621094 28.785156 29.296875 28.207031 28.910156 C 27.632812 28.527344 27.101562 28.089844 26.609375 27.601562 C 26.121094 27.109375 25.683594 26.578125 25.296875 26 C 24.914062 25.425781 24.589844 24.816406 24.324219 24.175781 C 24.058594 23.539062 23.859375 22.878906 23.722656 22.199219 C 23.589844 21.519531 23.519531 20.832031 23.519531 20.140625 C 23.519531 19.449219 23.589844 18.761719 23.722656 18.082031 C 23.859375 17.402344 24.058594 16.742188 24.324219 16.101562 C 24.589844 15.464844 24.914062 14.855469 25.296875 14.277344 C 25.683594 13.703125 26.121094 13.171875 26.609375 12.679688 C 27.101562 12.191406 27.632812 11.753906 28.207031 11.367188 C 28.785156 10.984375 29.394531 10.660156 30.03125 10.394531 C 30.671875 10.128906 31.332031 9.929688 32.011719 9.792969 C 32.691406 9.660156 33.378906 9.589844 34.070312 9.589844 C 34.761719 9.589844 35.449219 9.660156 36.128906 9.792969 C 36.808594 9.929688 37.46875 10.128906 38.105469 10.394531 C 38.746094 10.660156 39.355469 10.984375 39.929688 11.367188 C 40.507812 11.753906 41.039062 12.191406 41.53125 12.679688 C 42.019531 13.171875 42.457031 13.703125 42.839844 14.277344 C 43.226562 14.855469 43.550781 15.464844 43.816406 16.101562 C 44.082031 16.742188 44.28125 17.402344 44.417969 18.082031 C 44.550781 18.761719 44.621094 19.449219 44.621094 20.140625 Z M 44.621094 20.140625 " fill-opacity="1" fill-rule="nonzero"/></g><g clip-path="url(#c3b5e1a29b)"><path fill="#05387d" d="M 44.621094 47.996094 C 44.621094 48.6875 44.550781 49.375 44.417969 50.054688 C 44.28125 50.734375 44.082031 51.394531 43.816406 52.035156 C 43.550781 52.671875 43.226562 53.28125 42.839844 53.859375 C 42.457031 54.433594 42.019531 54.964844 41.53125 55.457031 C 41.039062 55.945312 40.507812 56.382812 39.929688 56.769531 C 39.355469 57.152344 38.746094 57.476562 38.105469 57.742188 C 37.46875 58.007812 36.808594 58.207031 36.128906 58.34375 C 35.449219 58.476562 34.761719 58.546875 34.070312 58.546875 C 33.378906 58.546875 32.691406 58.476562 32.011719 58.34375 C 31.332031 58.207031 30.671875 58.007812 30.03125 57.742188 C 29.394531 57.476562 28.785156 57.152344 28.207031 56.769531 C 27.632812 56.382812 27.101562 55.945312 26.609375 55.457031 C 26.121094 54.964844 25.683594 54.433594 25.296875 53.859375 C 24.914062 53.28125 24.589844 52.671875 24.324219 52.035156 C 24.058594 51.394531 23.859375 50.734375 23.722656 50.054688 C 23.589844 49.375 23.519531 48.6875 23.519531 47.996094 C 23.519531 47.304688 23.589844 46.617188 23.722656 45.9375 C 23.859375 45.257812 24.058594 44.597656 24.324219 43.960938 C 24.589844 43.320312 24.914062 42.710938 25.296875 42.136719 C 25.683594 41.558594 26.121094 41.027344 26.609375 40.535156 C 27.101562 40.046875 27.632812 39.609375 28.207031 39.226562 C 28.785156 38.839844 29.394531 38.515625 30.03125 38.25 C 30.671875 37.984375 31.332031 37.785156 32.011719 37.648438 C 32.691406 37.515625 33.378906 37.445312 34.070312 37.445312 C 34.761719 37.445312 35.449219 37.515625 36.128906 37.648438 C 36.808594 37.785156 37.46875 37.984375 38.105469 38.25 C 38.746094 38.515625 39.355469 38.839844 39.929688 39.226562 C 40.507812 39.609375 41.039062 40.046875 41.53125 40.535156 C 42.019531 41.027344 42.457031 41.558594 42.839844 42.136719 C 43.226562 42.710938 43.550781 43.320312 43.816406 43.960938 C 44.082031 44.597656 44.28125 45.257812 44.417969 45.9375 C 44.550781 46.617188 44.621094 47.304688 44.621094 47.996094 Z M 44.621094 47.996094 " fill-opacity="1" fill-rule="nonzero"/></g><g clip-path="url(#dfd272efbe)"><path fill="#05387d" d="M 44.621094 75.851562 C 44.621094 76.546875 44.550781 77.230469 44.417969 77.910156 C 44.28125 78.589844 44.082031 79.25 43.816406 79.890625 C 43.550781 80.53125 43.226562 81.136719 42.839844 81.714844 C 42.457031 82.289062 42.019531 82.824219 41.53125 83.3125 C 41.039062 83.800781 40.507812 84.238281 39.929688 84.625 C 39.355469 85.007812 38.746094 85.335938 38.105469 85.597656 C 37.46875 85.863281 36.808594 86.066406 36.128906 86.199219 C 35.449219 86.335938 34.761719 86.402344 34.070312 86.402344 C 33.378906 86.402344 32.691406 86.335938 32.011719 86.199219 C 31.332031 86.066406 30.671875 85.863281 30.03125 85.597656 C 29.394531 85.335938 28.785156 85.007812 28.207031 84.625 C 27.632812 84.238281 27.101562 83.800781 26.609375 83.3125 C 26.121094 82.824219 25.683594 82.289062 25.296875 81.714844 C 24.914062 81.136719 24.589844 80.53125 24.324219 79.890625 C 24.058594 79.25 23.859375 78.589844 23.722656 77.910156 C 23.589844 77.230469 23.519531 76.546875 23.519531 75.851562 C 23.519531 75.160156 23.589844 74.472656 23.722656 73.792969 C 23.859375 73.117188 24.058594 72.457031 24.324219 71.816406 C 24.589844 71.175781 24.914062 70.566406 25.296875 69.992188 C 25.683594 69.414062 26.121094 68.882812 26.609375 68.394531 C 27.101562 67.902344 27.632812 67.464844 28.207031 67.082031 C 28.785156 66.695312 29.394531 66.371094 30.03125 66.105469 C 30.671875 65.839844 31.332031 65.640625 32.011719 65.507812 C 32.691406 65.371094 33.378906 65.304688 34.070312 65.304688 C 34.761719 65.304688 35.449219 65.371094 36.128906 65.507812 C 36.808594 65.640625 37.46875 65.839844 38.105469 66.105469 C 38.746094 66.371094 39.355469 66.695312 39.929688 67.082031 C 40.507812 67.464844 41.039062 67.902344 41.53125 68.394531 C 42.019531 68.882812 42.457031 69.414062 42.839844 69.992188 C 43.226562 70.566406 43.550781 71.175781 43.816406 71.816406 C 44.082031 72.457031 44.28125 73.117188 44.417969 73.792969 C 44.550781 74.472656 44.621094 75.160156 44.621094 75.851562 Z M 44.621094 75.851562 " fill-opacity="1" fill-rule="nonzero"/></g><g clip-path="url(#5ede710dd9)"><path fill="#05387d" d="M 72.476562 75.851562 C 72.476562 76.546875 72.410156 77.230469 72.273438 77.910156 C 72.136719 78.589844 71.9375 79.25 71.671875 79.890625 C 71.40625 80.53125 71.082031 81.136719 70.699219 81.714844 C 70.3125 82.289062 69.875 82.824219 69.386719 83.3125 C 68.894531 83.800781 68.363281 84.238281 67.789062 84.625 C 67.210938 85.007812 66.605469 85.335938 65.964844 85.597656 C 65.324219 85.863281 64.664062 86.066406 63.984375 86.199219 C 63.304688 86.335938 62.621094 86.402344 61.925781 86.402344 C 61.234375 86.402344 60.546875 86.335938 59.867188 86.199219 C 59.1875 86.066406 58.53125 85.863281 57.890625 85.597656 C 57.25 85.335938 56.640625 85.007812 56.066406 84.625 C 55.488281 84.238281 54.957031 83.800781 54.46875 83.3125 C 53.976562 82.824219 53.539062 82.289062 53.15625 81.714844 C 52.769531 81.136719 52.445312 80.53125 52.179688 79.890625 C 51.914062 79.25 51.714844 78.589844 51.578125 77.910156 C 51.445312 77.230469 51.378906 76.546875 51.378906 75.851562 C 51.378906 75.160156 51.445312 74.472656 51.578125 73.792969 C 51.714844 73.117188 51.914062 72.457031 52.179688 71.816406 C 52.445312 71.175781 52.769531 70.566406 53.15625 69.992188 C 53.539062 69.414062 53.976562 68.882812 54.46875 68.394531 C 54.957031 67.902344 55.488281 67.464844 56.066406 67.082031 C 56.640625 66.695312 57.25 66.371094 57.890625 66.105469 C 58.53125 65.839844 59.1875 65.640625 59.867188 65.507812 C 60.546875 65.371094 61.234375 65.304688 61.925781 65.304688 C 62.621094 65.304688 63.304688 65.371094 63.984375 65.507812 C 64.664062 65.640625 65.324219 65.839844 65.964844 66.105469 C 66.605469 66.371094 67.210938 66.695312 67.789062 67.082031 C 68.363281 67.464844 68.894531 67.902344 69.386719 68.394531 C 69.875 68.882812 70.3125 69.414062 70.699219 69.992188 C 71.082031 70.566406 71.40625 71.175781 71.671875 71.816406 C 71.9375 72.457031 72.136719 73.117188 72.273438 73.792969 C 72.410156 74.472656 72.476562 75.160156 72.476562 75.851562 Z M 72.476562 75.851562 " fill-opacity="1" fill-rule="nonzero"/></g><g clip-path="url(#69e9bc1dde)"><path fill="#05387d" d="M 72.476562 47.996094 C 72.476562 48.6875 72.410156 49.375 72.273438 50.054688 C 72.136719 50.734375 71.9375 51.394531 71.671875 52.035156 C 71.40625 52.671875 71.082031 53.28125 70.699219 53.859375 C 70.3125 54.433594 69.875 54.964844 69.386719 55.457031 C 68.894531 55.945312 68.363281 56.382812 67.789062 56.769531 C 67.210938 57.152344 66.605469 57.476562 65.964844 57.742188 C 65.324219 58.007812 64.664062 58.207031 63.984375 58.34375 C 63.304688 58.476562 62.621094 58.546875 61.925781 58.546875 C 61.234375 58.546875 60.546875 58.476562 59.867188 58.34375 C 59.1875 58.207031 58.53125 58.007812 57.890625 57.742188 C 57.25 57.476562 56.640625 57.152344 56.066406 56.769531 C 55.488281 56.382812 54.957031 55.945312 54.46875 55.457031 C 53.976562 54.964844 53.539062 54.433594 53.15625 53.859375 C 52.769531 53.28125 52.445312 52.671875 52.179688 52.035156 C 51.914062 51.394531 51.714844 50.734375 51.578125 50.054688 C 51.445312 49.375 51.378906 48.6875 51.378906 47.996094 C 51.378906 47.304688 51.445312 46.617188 51.578125 45.9375 C 51.714844 45.257812 51.914062 44.597656 52.179688 43.960938 C 52.445312 43.320312 52.769531 42.710938 53.15625 42.136719 C 53.539062 41.558594 53.976562 41.027344 54.46875 40.535156 C 54.957031 40.046875 55.488281 39.609375 56.066406 39.226562 C 56.640625 38.839844 57.25 38.515625 57.890625 38.25 C 58.53125 37.984375 59.1875 37.785156 59.867188 37.648438 C 60.546875 37.515625 61.234375 37.445312 61.925781 37.445312 C 62.621094 37.445312 63.304688 37.515625 63.984375 37.648438 C 64.664062 37.785156 65.324219 37.984375 65.964844 38.25 C 66.605469 38.515625 67.210938 38.839844 67.789062 39.226562 C 68.363281 39.609375 68.894531 40.046875 69.386719 40.535156 C 69.875 41.027344 70.3125 41.558594 70.699219 42.136719 C 71.082031 42.710938 71.40625 43.320312 71.671875 43.960938 C 71.9375 44.597656 72.136719 45.257812 72.273438 45.9375 C 72.410156 46.617188 72.476562 47.304688 72.476562 47.996094 Z M 72.476562 47.996094 " fill-opacity="1" fill-rule="nonzero"/></g><g clip-path="url(#5f845c30b6)"><path fill="#05387d" d="M 72.476562 20.140625 C 72.476562 20.832031 72.410156 21.519531 72.273438 22.199219 C 72.136719 22.878906 71.9375 23.539062 71.671875 24.175781 C 71.40625 24.816406 71.082031 25.425781 70.699219 26 C 70.3125 26.578125 69.875 27.109375 69.386719 27.601562 C 68.894531 28.089844 68.363281 28.527344 67.789062 28.910156 C 67.210938 29.296875 66.605469 29.621094 65.964844 29.886719 C 65.324219 30.152344 64.664062 30.351562 63.984375 30.488281 C 63.304688 30.621094 62.621094 30.691406 61.925781 30.691406 C 61.234375 30.691406 60.546875 30.621094 59.867188 30.488281 C 59.1875 30.351562 58.53125 30.152344 57.890625 29.886719 C 57.25 29.621094 56.640625 29.296875 56.066406 28.910156 C 55.488281 28.527344 54.957031 28.089844 54.46875 27.601562 C 53.976562 27.109375 53.539062 26.578125 53.15625 26 C 52.769531 25.425781 52.445312 24.816406 52.179688 24.175781 C 51.914062 23.539062 51.714844 22.878906 51.578125 22.199219 C 51.445312 21.519531 51.378906 20.832031 51.378906 20.140625 C 51.378906 19.449219 51.445312 18.761719 51.578125 18.082031 C 51.714844 17.402344 51.914062 16.742188 52.179688 16.101562 C 52.445312 15.464844 52.769531 14.855469 53.15625 14.277344 C 53.539062 13.703125 53.976562 13.171875 54.46875 12.679688 C 54.957031 12.191406 55.488281 11.753906 56.066406 11.367188 C 56.640625 10.984375 57.25 10.660156 57.890625 10.394531 C 58.53125 10.128906 59.1875 9.929688 59.867188 9.792969 C 60.546875 9.660156 61.234375 9.589844 61.925781 9.589844 C 62.621094 9.589844 63.304688 9.660156 63.984375 9.792969 C 64.664062 9.929688 65.324219 10.128906 65.964844 10.394531 C 66.605469 10.660156 67.210938 10.984375 67.789062 11.367188 C 68.363281 11.753906 68.894531 12.191406 69.386719 12.679688 C 69.875 13.171875 70.3125 13.703125 70.699219 14.277344 C 71.082031 14.855469 71.40625 15.464844 71.671875 16.101562 C 71.9375 16.742188 72.136719 17.402344 72.273438 18.082031 C 72.410156 18.761719 72.476562 19.449219 72.476562 20.140625 Z M 72.476562 20.140625 " fill-opacity="1" fill-rule="nonzero"/></g></svg>