<svg xmlns="http://www.w3.org/2000/svg" xmlns:xlink="http://www.w3.org/1999/xlink" width="128" zoomAndPan="magnify" viewBox="0 0 96 95.999999" height="128" preserveAspectRatio="xMidYMid meet" version="1.0"><path fill="#a6a6a6" d="M 0 93.714844 C 0 94.976562 1.023438 96 2.285156 96 L 66.285156 96 C 67.546875 96 68.570312 94.976562 68.570312 93.714844 L 68.570312 29.714844 C 68.570312 28.453125 67.546875 27.429688 66.285156 27.429688 L 2.285156 27.429688 C 1.023438 27.429688 0 28.453125 0 29.714844 Z M 4.570312 91.429688 L 4.570312 32 L 64 32 L 64 91.429688 Z M 4.570312 91.429688 " fill-opacity="1" fill-rule="evenodd"/><path fill="#a6a6a6" d="M 91.429688 64 L 66.285156 64 L 66.285156 68.570312 L 93.714844 68.570312 C 94.976562 68.570312 96 67.546875 96 66.285156 L 96 2.285156 C 96 1.023438 94.976562 0 93.714844 0 L 29.714844 0 C 28.453125 0 27.429688 1.023438 27.429688 2.285156 L 27.429688 29.714844 L 32 29.714844 L 32 4.570312 L 91.429688 4.570312 Z M 91.429688 64 " fill-opacity="1" fill-rule="evenodd"/><path fill="#a6a6a6" d="M 32 43.429688 L 36.570312 43.429688 L 36.570312 80 L 32 80 Z M 32 43.429688 " fill-opacity="1" fill-rule="evenodd"/><path fill="#a6a6a6" d="M 16 59.429688 L 52.570312 59.429688 L 52.570312 64 L 16 64 Z M 16 59.429688 " fill-opacity="1" fill-rule="evenodd"/></svg>