<svg xmlns="http://www.w3.org/2000/svg" xmlns:xlink="http://www.w3.org/1999/xlink" width="128" zoomAndPan="magnify" viewBox="0 0 96 95.999999" height="128" preserveAspectRatio="xMidYMid meet" version="1.0"><defs><clipPath id="b6dd8f61fb"><path d="M 8.117188 0 L 87.601562 0 L 87.601562 95.992188 L 8.117188 95.992188 Z M 8.117188 0 " clip-rule="nonzero"/></clipPath></defs><g clip-path="url(#b6dd8f61fb)"><path fill="#05387d" d="M 58.765625 62.6875 L 39.3125 62.6875 L 39.3125 60.152344 L 42.914062 60.152344 L 42.914062 34.066406 L 39.054688 34.066406 L 39.054688 31.503906 L 55.101562 31.503906 L 55.101562 60.152344 L 58.765625 60.152344 Z M 48.566406 14.835938 C 51.910156 14.835938 54.625 17.546875 54.625 20.894531 C 54.625 24.242188 51.910156 26.953125 48.566406 26.953125 C 45.21875 26.953125 42.507812 24.242188 42.507812 20.894531 C 42.507812 17.546875 45.21875 14.835938 48.566406 14.835938 Z M 76.183594 11.679688 C 60.613281 -3.890625 35.367188 -3.890625 19.796875 11.679688 C 4.226562 27.25 4.226562 52.496094 19.796875 68.066406 C 26.828125 75.097656 48.257812 95.992188 48.257812 95.992188 C 48.257812 95.992188 67.644531 76.605469 76.183594 68.066406 C 91.753906 52.496094 91.753906 27.25 76.183594 11.679688 " fill-opacity="1" fill-rule="nonzero"/></g></svg>