<svg xmlns="http://www.w3.org/2000/svg" xmlns:xlink="http://www.w3.org/1999/xlink" width="128" zoomAndPan="magnify" viewBox="0 0 96 95.999999" height="128" preserveAspectRatio="xMidYMid meet" version="1.0"><defs><clipPath id="aba5304ad2"><path d="M 9.601562 0 L 80 0 L 80 96 L 9.601562 96 Z M 9.601562 0 " clip-rule="nonzero"/></clipPath></defs><g clip-path="url(#aba5304ad2)"><path fill="#05387d" d="M 21.398438 96.011719 L 68.203125 96.011719 C 74.691406 96.011719 79.96875 90.734375 79.96875 84.246094 L 79.96875 17.921875 C 79.96875 12.71875 76.558594 8.199219 71.691406 6.703125 L 71.691406 4.488281 C 71.691406 2.011719 69.671875 -0.0117188 67.1875 -0.0117188 C 64.714844 -0.0117188 62.707031 2.011719 62.707031 4.488281 L 62.707031 6.160156 L 57.171875 6.160156 L 57.171875 4.488281 C 57.171875 2.011719 55.148438 -0.0117188 52.667969 -0.0117188 C 50.183594 -0.0117188 48.167969 2.011719 48.167969 4.488281 L 48.167969 6.160156 L 42.644531 6.160156 L 42.644531 4.488281 C 42.644531 2.011719 40.628906 -0.0117188 38.144531 -0.0117188 C 35.664062 -0.0117188 33.644531 2.011719 33.644531 4.488281 L 33.644531 6.160156 L 28.105469 6.160156 L 28.105469 4.488281 C 28.105469 2.011719 26.09375 -0.0117188 23.625 -0.0117188 C 21.140625 -0.0117188 19.121094 2.011719 19.121094 4.488281 L 19.121094 6.402344 C 13.699219 7.46875 9.632812 12.257812 9.632812 17.921875 L 9.632812 84.246094 C 9.632812 90.734375 14.910156 96.011719 21.398438 96.011719 Z M 65.855469 4.488281 C 65.855469 3.746094 66.453125 3.136719 67.1875 3.136719 C 67.9375 3.136719 68.542969 3.746094 68.542969 4.488281 L 68.542969 9.449219 C 68.542969 10.195312 67.9375 10.804688 67.1875 10.804688 C 66.453125 10.804688 65.855469 10.195312 65.855469 9.449219 Z M 51.316406 4.488281 C 51.316406 3.746094 51.917969 3.136719 52.667969 3.136719 C 53.414062 3.136719 54.023438 3.746094 54.023438 4.488281 L 54.023438 9.449219 C 54.023438 10.195312 53.414062 10.804688 52.667969 10.804688 C 51.917969 10.804688 51.316406 10.195312 51.316406 9.449219 Z M 36.792969 4.488281 C 36.792969 3.746094 37.398438 3.136719 38.144531 3.136719 C 38.894531 3.136719 39.496094 3.746094 39.496094 4.488281 L 39.496094 9.449219 C 39.496094 10.195312 38.894531 10.804688 38.144531 10.804688 C 37.398438 10.804688 36.792969 10.195312 36.792969 9.449219 Z M 22.269531 4.488281 C 22.269531 3.746094 22.875 3.136719 23.625 3.136719 C 24.359375 3.136719 24.957031 3.746094 24.957031 4.488281 L 24.957031 9.449219 C 24.957031 10.195312 24.359375 10.804688 23.625 10.804688 C 22.875 10.804688 22.269531 10.195312 22.269531 9.449219 Z M 12.78125 17.921875 C 12.78125 13.984375 15.464844 10.617188 19.140625 9.621094 C 19.230469 12.023438 21.199219 13.953125 23.625 13.953125 C 26.09375 13.953125 28.105469 11.933594 28.105469 9.449219 L 28.105469 9.308594 L 33.640625 9.308594 L 33.640625 9.449219 C 33.640625 11.933594 35.664062 13.953125 38.144531 13.953125 C 40.628906 13.953125 42.644531 11.933594 42.644531 9.449219 L 42.644531 9.308594 L 48.167969 9.308594 L 48.167969 9.449219 C 48.167969 11.933594 50.183594 13.953125 52.667969 13.953125 C 55.148438 13.953125 57.171875 11.933594 57.171875 9.449219 L 57.171875 9.308594 L 62.707031 9.308594 L 62.707031 9.449219 C 62.707031 11.933594 64.714844 13.953125 67.1875 13.953125 C 69.464844 13.953125 71.335938 12.246094 71.632812 10.046875 C 74.71875 11.382812 76.820312 14.433594 76.820312 17.921875 L 76.820312 84.246094 C 76.820312 89 72.953125 92.863281 68.203125 92.863281 L 21.398438 92.863281 C 16.648438 92.863281 12.78125 89 12.78125 84.246094 Z M 12.78125 17.921875 " fill-opacity="1" fill-rule="nonzero"/></g><path fill="#05387d" d="M 24.816406 24.429688 L 64.28125 24.429688 C 65.148438 24.429688 65.855469 23.722656 65.855469 22.855469 C 65.855469 21.984375 65.148438 21.28125 64.28125 21.28125 L 24.816406 21.28125 C 23.949219 21.28125 23.242188 21.984375 23.242188 22.855469 C 23.242188 23.722656 23.949219 24.429688 24.816406 24.429688 Z M 24.816406 24.429688 " fill-opacity="1" fill-rule="nonzero"/><path fill="#05387d" d="M 24.816406 35.730469 L 64.28125 35.730469 C 65.148438 35.730469 65.855469 35.023438 65.855469 34.15625 C 65.855469 33.285156 65.148438 32.582031 64.28125 32.582031 L 24.816406 32.582031 C 23.949219 32.582031 23.242188 33.285156 23.242188 34.15625 C 23.242188 35.023438 23.949219 35.730469 24.816406 35.730469 Z M 24.816406 35.730469 " fill-opacity="1" fill-rule="nonzero"/><path fill="#05387d" d="M 24.816406 47.027344 L 64.28125 47.027344 C 65.148438 47.027344 65.855469 46.324219 65.855469 45.453125 C 65.855469 44.585938 65.148438 43.878906 64.28125 43.878906 L 24.816406 43.878906 C 23.949219 43.878906 23.242188 44.585938 23.242188 45.453125 C 23.242188 46.324219 23.949219 47.027344 24.816406 47.027344 Z M 24.816406 47.027344 " fill-opacity="1" fill-rule="nonzero"/><path fill="#05387d" d="M 24.816406 58.328125 L 64.28125 58.328125 C 65.148438 58.328125 65.855469 57.625 65.855469 56.753906 C 65.855469 55.886719 65.148438 55.179688 64.28125 55.179688 L 24.816406 55.179688 C 23.949219 55.179688 23.242188 55.886719 23.242188 56.753906 C 23.242188 57.625 23.949219 58.328125 24.816406 58.328125 Z M 24.816406 58.328125 " fill-opacity="1" fill-rule="nonzero"/><path fill="#05387d" d="M 24.816406 69.628906 L 64.28125 69.628906 C 65.148438 69.628906 65.855469 68.921875 65.855469 68.054688 C 65.855469 67.183594 65.148438 66.480469 64.28125 66.480469 L 24.816406 66.480469 C 23.949219 66.480469 23.242188 67.183594 23.242188 68.054688 C 23.242188 68.921875 23.949219 69.628906 24.816406 69.628906 Z M 24.816406 69.628906 " fill-opacity="1" fill-rule="nonzero"/><path fill="#05387d" d="M 24.816406 80.929688 L 64.28125 80.929688 C 65.148438 80.929688 65.855469 80.226562 65.855469 79.355469 C 65.855469 78.484375 65.148438 77.78125 64.28125 77.78125 L 24.816406 77.78125 C 23.949219 77.78125 23.242188 78.484375 23.242188 79.355469 C 23.242188 80.226562 23.949219 80.929688 24.816406 80.929688 Z M 24.816406 80.929688 " fill-opacity="1" fill-rule="nonzero"/></svg>