<svg xmlns="http://www.w3.org/2000/svg" xmlns:xlink="http://www.w3.org/1999/xlink" width="128" zoomAndPan="magnify" viewBox="0 0 96 95.999999" height="128" preserveAspectRatio="xMidYMid meet" version="1.0"><defs><clipPath id="92358c69a5"><path d="M 0 16.441406 L 96 16.441406 L 96 25 L 0 25 Z M 0 16.441406 " clip-rule="nonzero"/></clipPath><clipPath id="636e79a6a8"><path d="M 0 71 L 96 71 L 96 79.441406 L 0 79.441406 Z M 0 71 " clip-rule="nonzero"/></clipPath></defs><g clip-path="url(#92358c69a5)"><path fill="#a6a6a6" d="M 95.996094 20.570312 C 95.996094 22.84375 94.15625 24.6875 91.882812 24.6875 L 4.117188 24.6875 C 1.84375 24.6875 0.00390625 22.84375 0.00390625 20.570312 C 0.00390625 18.300781 1.84375 16.457031 4.117188 16.457031 L 91.882812 16.457031 C 94.15625 16.457031 95.996094 18.300781 95.996094 20.570312 Z M 95.996094 20.570312 " fill-opacity="1" fill-rule="evenodd"/></g><path fill="#a6a6a6" d="M 95.996094 48 C 95.996094 50.269531 94.15625 52.113281 91.882812 52.113281 L 4.117188 52.113281 C 1.84375 52.113281 0.00390625 50.269531 0.00390625 48 C 0.00390625 45.726562 1.84375 43.886719 4.117188 43.886719 L 91.882812 43.886719 C 94.15625 43.886719 95.996094 45.726562 95.996094 48 Z M 95.996094 48 " fill-opacity="1" fill-rule="evenodd"/><g clip-path="url(#636e79a6a8)"><path fill="#a6a6a6" d="M 95.996094 75.425781 C 95.996094 77.699219 94.15625 79.539062 91.882812 79.539062 L 4.117188 79.539062 C 1.84375 79.539062 0.00390625 77.699219 0.00390625 75.425781 C 0.00390625 73.15625 1.84375 71.3125 4.117188 71.3125 L 91.882812 71.3125 C 94.15625 71.3125 95.996094 73.15625 95.996094 75.425781 Z M 95.996094 75.425781 " fill-opacity="1" fill-rule="evenodd"/></g></svg>