<svg xmlns="http://www.w3.org/2000/svg" xmlns:xlink="http://www.w3.org/1999/xlink" width="128" zoomAndPan="magnify" viewBox="0 0 96 95.999999" height="128" preserveAspectRatio="xMidYMid meet" version="1.0"><defs><clipPath id="fd7a43d052"><path d="M 0 2.445312 L 96 2.445312 L 96 93.195312 L 0 93.195312 Z M 0 2.445312 " clip-rule="nonzero"/></clipPath></defs><g clip-path="url(#fd7a43d052)"><path fill="#545454" d="M 88.535156 12.71875 L 81.535156 12.71875 C 80.542969 12.136719 79.480469 11.757812 78.34375 11.582031 L 73.726562 10.894531 L 73.726562 8.707031 C 73.726562 8.421875 73.699219 8.140625 73.644531 7.863281 C 73.585938 7.585938 73.503906 7.316406 73.398438 7.050781 C 73.289062 6.789062 73.15625 6.539062 72.996094 6.304688 C 72.839844 6.070312 72.660156 5.851562 72.460938 5.648438 C 72.257812 5.449219 72.039062 5.269531 71.804688 5.113281 C 71.570312 4.953125 71.320312 4.820312 71.058594 4.710938 C 70.796875 4.605469 70.523438 4.523438 70.246094 4.464844 C 69.96875 4.410156 69.6875 4.382812 69.402344 4.382812 L 63.929688 4.382812 C 63.644531 4.382812 63.363281 4.410156 63.085938 4.464844 C 62.808594 4.523438 62.535156 4.605469 62.273438 4.710938 C 62.011719 4.820312 61.761719 4.953125 61.527344 5.113281 C 61.289062 5.269531 61.074219 5.449219 60.871094 5.648438 C 60.671875 5.851562 60.492188 6.070312 60.335938 6.304688 C 60.175781 6.539062 60.042969 6.789062 59.933594 7.050781 C 59.824219 7.316406 59.742188 7.585938 59.6875 7.863281 C 59.632812 8.140625 59.605469 8.421875 59.605469 8.707031 L 20.234375 2.886719 C 19.65625 2.800781 19.078125 2.769531 18.492188 2.792969 C 17.910156 2.820312 17.335938 2.902344 16.765625 3.042969 C 16.199219 3.183594 15.652344 3.375 15.121094 3.625 C 14.59375 3.871094 14.09375 4.167969 13.621094 4.515625 C 13.152344 4.863281 12.71875 5.25 12.328125 5.683594 C 11.933594 6.117188 11.585938 6.582031 11.285156 7.082031 C 10.984375 7.582031 10.734375 8.109375 10.535156 8.660156 C 10.335938 9.207031 10.195312 9.773438 10.109375 10.351562 L 0.757812 72.652344 C 0.667969 73.230469 0.640625 73.8125 0.667969 74.398438 C 0.695312 74.980469 0.78125 75.558594 0.921875 76.125 C 1.0625 76.695312 1.257812 77.242188 1.503906 77.773438 C 1.753906 78.304688 2.050781 78.804688 2.398438 79.273438 C 2.746094 79.746094 3.136719 80.179688 3.566406 80.574219 C 4 80.96875 4.464844 81.316406 4.96875 81.621094 C 5.46875 81.925781 5.992188 82.175781 6.542969 82.375 C 7.09375 82.578125 7.65625 82.722656 8.234375 82.8125 L 19.429688 84.453125 L 19.429688 86.097656 C 19.429688 86.589844 19.480469 87.078125 19.578125 87.558594 C 19.675781 88.042969 19.820312 88.511719 20.007812 88.964844 C 20.199219 89.417969 20.433594 89.847656 20.707031 90.257812 C 20.984375 90.664062 21.296875 91.042969 21.644531 91.386719 C 21.996094 91.734375 22.375 92.042969 22.785156 92.3125 C 23.195312 92.585938 23.628906 92.8125 24.085938 92.996094 C 24.542969 93.183594 25.011719 93.320312 25.496094 93.414062 C 25.980469 93.503906 26.46875 93.550781 26.957031 93.546875 L 88.601562 93.546875 C 89.089844 93.539062 89.570312 93.488281 90.046875 93.386719 C 90.523438 93.289062 90.988281 93.144531 91.4375 92.953125 C 91.882812 92.765625 92.308594 92.53125 92.714844 92.257812 C 93.117188 91.988281 93.488281 91.675781 93.832031 91.332031 C 94.175781 90.984375 94.480469 90.609375 94.75 90.203125 C 95.019531 89.796875 95.25 89.371094 95.433594 88.921875 C 95.621094 88.46875 95.761719 88.007812 95.855469 87.527344 C 95.949219 87.050781 96 86.570312 96 86.082031 L 96 20.214844 C 96 19.722656 95.953125 19.234375 95.859375 18.753906 C 95.765625 18.273438 95.625 17.804688 95.4375 17.351562 C 95.25 16.894531 95.019531 16.464844 94.75 16.054688 C 94.476562 15.648438 94.167969 15.269531 93.820312 14.921875 C 93.472656 14.570312 93.097656 14.261719 92.691406 13.988281 C 92.28125 13.714844 91.851562 13.480469 91.398438 13.292969 C 90.945312 13.105469 90.476562 12.960938 89.996094 12.863281 C 89.515625 12.769531 89.027344 12.71875 88.535156 12.71875 Z M 62.792969 8.707031 C 62.792969 8.554688 62.824219 8.410156 62.878906 8.269531 C 62.9375 8.128906 63.019531 8.007812 63.125 7.898438 C 63.230469 7.792969 63.355469 7.707031 63.492188 7.648438 C 63.632812 7.589844 63.777344 7.558594 63.929688 7.554688 L 69.402344 7.554688 C 69.554688 7.558594 69.699219 7.589844 69.839844 7.648438 C 69.980469 7.707031 70.105469 7.789062 70.210938 7.898438 C 70.320312 8.003906 70.402344 8.128906 70.460938 8.269531 C 70.519531 8.410156 70.550781 8.554688 70.554688 8.707031 L 70.554688 10.351562 L 62.792969 9.199219 Z M 19.429688 20.214844 L 19.429688 81.265625 L 8.710938 79.621094 C 8.339844 79.566406 7.972656 79.472656 7.617188 79.34375 C 7.261719 79.214844 6.921875 79.050781 6.597656 78.855469 C 6.273438 78.65625 5.972656 78.433594 5.691406 78.175781 C 5.414062 77.921875 5.164062 77.640625 4.9375 77.335938 C 4.714844 77.027344 4.523438 76.703125 4.363281 76.359375 C 4.203125 76.019531 4.078125 75.664062 3.988281 75.292969 C 3.902344 74.925781 3.847656 74.554688 3.832031 74.175781 C 3.816406 73.796875 3.835938 73.421875 3.894531 73.046875 L 13.25 10.746094 C 13.363281 10.011719 13.609375 9.324219 13.988281 8.6875 C 14.371094 8.050781 14.859375 7.507812 15.453125 7.0625 C 16.0625 6.609375 16.738281 6.292969 17.476562 6.113281 C 18.214844 5.933594 18.960938 5.90625 19.710938 6.027344 L 64.4375 12.71875 L 26.957031 12.71875 C 26.464844 12.714844 25.976562 12.757812 25.488281 12.851562 C 25.003906 12.945312 24.53125 13.082031 24.074219 13.269531 C 23.617188 13.457031 23.183594 13.6875 22.769531 13.960938 C 22.359375 14.230469 21.976562 14.542969 21.628906 14.890625 C 21.277344 15.242188 20.964844 15.621094 20.691406 16.03125 C 20.414062 16.441406 20.183594 16.875 19.996094 17.332031 C 19.804688 17.789062 19.664062 18.261719 19.570312 18.746094 C 19.472656 19.230469 19.429688 19.71875 19.429688 20.214844 Z M 92.828125 86.082031 C 92.828125 86.363281 92.796875 86.640625 92.742188 86.917969 C 92.6875 87.191406 92.605469 87.460938 92.496094 87.71875 C 92.386719 87.976562 92.253906 88.222656 92.097656 88.457031 C 91.941406 88.691406 91.765625 88.90625 91.566406 89.105469 C 91.367188 89.304688 91.148438 89.480469 90.914062 89.636719 C 90.679688 89.792969 90.433594 89.921875 90.175781 90.03125 C 89.914062 90.136719 89.648438 90.21875 89.371094 90.273438 C 89.097656 90.328125 88.816406 90.355469 88.535156 90.355469 L 26.957031 90.355469 C 26.679688 90.355469 26.398438 90.328125 26.125 90.273438 C 25.847656 90.21875 25.582031 90.136719 25.320312 90.03125 C 25.0625 89.921875 24.8125 89.792969 24.582031 89.636719 C 24.347656 89.480469 24.128906 89.304688 23.929688 89.105469 C 23.730469 88.90625 23.554688 88.691406 23.398438 88.457031 C 23.242188 88.222656 23.109375 87.976562 23 87.71875 C 22.890625 87.460938 22.808594 87.191406 22.753906 86.917969 C 22.699219 86.640625 22.667969 86.363281 22.667969 86.082031 L 22.667969 20.214844 C 22.667969 19.929688 22.695312 19.652344 22.75 19.375 C 22.800781 19.097656 22.882812 18.828125 22.992188 18.566406 C 23.097656 18.304688 23.230469 18.058594 23.386719 17.820312 C 23.542969 17.585938 23.71875 17.371094 23.917969 17.167969 C 24.117188 16.96875 24.335938 16.789062 24.570312 16.632812 C 24.804688 16.476562 25.050781 16.34375 25.3125 16.234375 C 25.574219 16.125 25.84375 16.042969 26.121094 15.988281 C 26.398438 15.933594 26.675781 15.90625 26.957031 15.90625 L 70.554688 15.90625 L 70.554688 27.691406 C 70.554688 27.84375 70.523438 27.992188 70.464844 28.132812 C 70.40625 28.273438 70.324219 28.398438 70.214844 28.507812 C 70.109375 28.613281 69.984375 28.699219 69.84375 28.757812 C 69.703125 28.816406 69.554688 28.84375 69.402344 28.84375 C 69.25 28.84375 69.101562 28.816406 68.960938 28.757812 C 68.820312 28.699219 68.695312 28.613281 68.589844 28.507812 C 68.480469 28.398438 68.398438 28.273438 68.339844 28.132812 C 68.28125 27.992188 68.253906 27.84375 68.253906 27.691406 L 68.253906 19.835938 C 68.320312 19.589844 68.328125 19.339844 68.277344 19.089844 C 68.230469 18.835938 68.128906 18.609375 67.972656 18.40625 C 67.816406 18.203125 67.625 18.042969 67.394531 17.929688 C 67.164062 17.816406 66.921875 17.761719 66.664062 17.761719 C 66.410156 17.761719 66.167969 17.816406 65.9375 17.929688 C 65.707031 18.042969 65.515625 18.203125 65.359375 18.40625 C 65.203125 18.609375 65.101562 18.835938 65.050781 19.089844 C 65.003906 19.339844 65.011719 19.589844 65.078125 19.835938 L 65.078125 27.691406 C 65.078125 27.976562 65.105469 28.257812 65.164062 28.535156 C 65.21875 28.816406 65.300781 29.085938 65.410156 29.347656 C 65.515625 29.609375 65.648438 29.859375 65.808594 30.09375 C 65.964844 30.332031 66.144531 30.550781 66.347656 30.75 C 66.546875 30.949219 66.765625 31.128906 67 31.289062 C 67.238281 31.445312 67.484375 31.578125 67.75 31.6875 C 68.011719 31.796875 68.28125 31.878906 68.558594 31.933594 C 68.835938 31.988281 69.117188 32.015625 69.402344 32.015625 C 69.6875 32.015625 69.96875 31.988281 70.246094 31.933594 C 70.523438 31.878906 70.796875 31.796875 71.058594 31.6875 C 71.320312 31.578125 71.570312 31.445312 71.804688 31.289062 C 72.039062 31.128906 72.257812 30.949219 72.460938 30.75 C 72.660156 30.550781 72.839844 30.332031 72.996094 30.09375 C 73.15625 29.859375 73.289062 29.609375 73.398438 29.347656 C 73.503906 29.085938 73.585938 28.816406 73.644531 28.535156 C 73.699219 28.257812 73.726562 27.976562 73.726562 27.691406 L 73.726562 15.90625 L 88.519531 15.90625 C 88.804688 15.90625 89.085938 15.933594 89.363281 15.988281 C 89.640625 16.042969 89.910156 16.121094 90.171875 16.230469 C 90.433594 16.339844 90.683594 16.46875 90.917969 16.628906 C 91.152344 16.785156 91.371094 16.964844 91.570312 17.164062 C 91.769531 17.363281 91.949219 17.582031 92.105469 17.816406 C 92.265625 18.050781 92.394531 18.300781 92.503906 18.5625 C 92.613281 18.824219 92.691406 19.09375 92.746094 19.371094 C 92.800781 19.648438 92.828125 19.929688 92.828125 20.214844 Z M 92.828125 86.082031 " fill-opacity="1" fill-rule="nonzero"/></g><path fill="#545454" d="M 81.105469 38.296875 L 37.316406 38.589844 C 36.957031 38.6875 36.664062 38.886719 36.441406 39.179688 C 36.214844 39.472656 36.101562 39.808594 36.101562 40.179688 C 36.101562 40.550781 36.214844 40.882812 36.441406 41.175781 C 36.664062 41.472656 36.957031 41.667969 37.316406 41.765625 L 81.207031 41.484375 C 81.5625 41.386719 81.855469 41.191406 82.082031 40.898438 C 82.304688 40.601562 82.417969 40.269531 82.417969 39.898438 C 82.417969 39.527344 82.304688 39.195312 82.082031 38.898438 C 81.855469 38.605469 81.5625 38.410156 81.207031 38.3125 Z M 81.105469 38.296875 " fill-opacity="1" fill-rule="nonzero"/><path fill="#545454" d="M 81.105469 54.554688 L 37.316406 54.847656 C 36.957031 54.945312 36.664062 55.140625 36.441406 55.4375 C 36.214844 55.730469 36.101562 56.066406 36.101562 56.433594 C 36.101562 56.804688 36.214844 57.140625 36.441406 57.433594 C 36.664062 57.730469 36.957031 57.925781 37.316406 58.023438 L 81.207031 57.726562 C 81.5625 57.628906 81.855469 57.433594 82.082031 57.136719 C 82.304688 56.84375 82.417969 56.511719 82.417969 56.140625 C 82.417969 55.769531 82.304688 55.4375 82.082031 55.140625 C 81.855469 54.847656 81.5625 54.652344 81.207031 54.554688 Z M 81.105469 54.554688 " fill-opacity="1" fill-rule="nonzero"/><path fill="#545454" d="M 81.105469 70.792969 L 37.316406 71.171875 C 37.097656 71.171875 36.886719 71.214844 36.6875 71.296875 C 36.484375 71.382812 36.308594 71.5 36.152344 71.652344 C 36 71.808594 35.878906 71.984375 35.796875 72.1875 C 35.714844 72.386719 35.671875 72.597656 35.671875 72.816406 C 35.671875 73.035156 35.714844 73.242188 35.796875 73.445312 C 35.878906 73.648438 36 73.824219 36.152344 73.980469 C 36.308594 74.132812 36.484375 74.25 36.6875 74.335938 C 36.886719 74.417969 37.097656 74.460938 37.316406 74.460938 L 81.207031 73.96875 C 81.453125 74.035156 81.703125 74.042969 81.953125 73.992188 C 82.203125 73.945312 82.429688 73.84375 82.636719 73.6875 C 82.839844 73.53125 82.996094 73.339844 83.109375 73.109375 C 83.222656 72.878906 83.28125 72.636719 83.28125 72.378906 C 83.28125 72.125 83.222656 71.882812 83.109375 71.652344 C 82.996094 71.421875 82.839844 71.230469 82.636719 71.074219 C 82.429688 70.917969 82.203125 70.816406 81.953125 70.769531 C 81.703125 70.71875 81.453125 70.726562 81.207031 70.792969 Z M 81.105469 70.792969 " fill-opacity="1" fill-rule="nonzero"/></svg>