<svg xmlns="http://www.w3.org/2000/svg" xmlns:xlink="http://www.w3.org/1999/xlink" width="128" zoomAndPan="magnify" viewBox="0 0 96 95.999999" height="128" preserveAspectRatio="xMidYMid meet" version="1.0"><defs><clipPath id="4e53d16c74"><path d="M 2.339844 0 L 93.839844 0 L 93.839844 96 L 2.339844 96 Z M 2.339844 0 " clip-rule="nonzero"/></clipPath></defs><path fill="#545454" d="M 48 23.761719 C 37.910156 23.761719 29.734375 32.351562 29.734375 42.945312 C 29.734375 53.539062 37.910156 62.128906 48 62.128906 C 58.085938 62.128906 66.261719 53.539062 66.261719 42.945312 C 66.261719 32.351562 58.085938 23.761719 48 23.761719 " fill-opacity="1" fill-rule="nonzero"/><g clip-path="url(#4e53d16c74)"><path fill="#545454" d="M 78.332031 81.109375 C 74.285156 71.234375 65.792969 65.058594 47.972656 65.058594 C 30.171875 65.058594 21.679688 71.21875 17.628906 81.070312 C 9.382812 72.710938 4.253906 60.984375 4.253906 48 C 4.253906 22.625 23.839844 2.050781 48 2.050781 C 72.160156 2.050781 91.742188 22.625 91.742188 48 C 91.742188 61.003906 86.597656 72.75 78.332031 81.109375 Z M 48 0.0429688 C 22.78125 0.0429688 2.339844 21.515625 2.339844 48 C 2.339844 61.851562 7.933594 74.335938 16.875 83.089844 C 25.03125 91.074219 35.972656 95.957031 48 95.957031 C 60.003906 95.957031 70.929688 91.089844 79.082031 83.128906 C 88.046875 74.375 93.65625 61.875 93.65625 48 C 93.65625 21.515625 73.214844 0.0429688 48 0.0429688 " fill-opacity="1" fill-rule="nonzero"/></g></svg>