<svg xmlns="http://www.w3.org/2000/svg" xmlns:xlink="http://www.w3.org/1999/xlink" width="128" zoomAndPan="magnify" viewBox="0 0 96 95.999999" height="128" preserveAspectRatio="xMidYMid meet" version="1.0"><path fill="#545454" d="M 93.191406 29.78125 C 87.914062 21.308594 82.636719 12.832031 77.359375 4.355469 C 75.71875 1.71875 71.945312 1.714844 70.304688 4.355469 C 65.046875 12.832031 59.789062 21.308594 54.535156 29.78125 C 51.746094 34.273438 58.820312 38.375 61.589844 33.90625 C 64.308594 29.523438 67.027344 25.140625 69.746094 20.757812 C 69.746094 29.964844 69.746094 39.171875 69.746094 48.378906 C 64.472656 48.378906 59.199219 48.378906 53.929688 48.378906 C 50.226562 48.378906 46.433594 48.601562 42.734375 48.378906 C 42.253906 48.351562 41.78125 48.304688 41.304688 48.25 C 41.675781 48.28125 40.113281 48.039062 39.832031 47.980469 C 38.453125 47.699219 36.316406 46.988281 35.785156 46.746094 C 32.40625 45.226562 30.230469 43.203125 28.460938 39.984375 C 25.460938 34.523438 25.863281 27.125 26.09375 20.609375 C 28.855469 25.042969 31.617188 29.476562 34.375 33.90625 C 37.152344 38.371094 44.226562 34.269531 41.429688 29.78125 C 36.15625 21.308594 30.878906 12.832031 25.601562 4.355469 C 23.960938 1.71875 20.183594 1.714844 18.542969 4.355469 C 13.289062 12.832031 8.03125 21.308594 2.773438 29.78125 C -0.0117188 34.273438 7.058594 38.375 9.832031 33.90625 C 12.535156 29.550781 15.238281 25.191406 17.941406 20.835938 C 17.910156 24.328125 17.914062 27.820312 18.082031 31.300781 C 18.546875 40.832031 23.042969 49.925781 32.027344 53.96875 C 36.3125 55.898438 41.347656 56.988281 46.066406 56.550781 C 48.171875 56.355469 50.382812 56.550781 52.492188 56.550781 C 56.832031 56.550781 61.171875 56.550781 65.511719 56.550781 C 66.921875 56.550781 68.335938 56.550781 69.746094 56.550781 C 69.746094 67.46875 69.746094 78.390625 69.746094 89.3125 C 69.746094 89.769531 69.746094 90.226562 69.746094 90.683594 C 69.746094 95.953125 77.917969 95.953125 77.917969 90.683594 C 77.917969 67.359375 77.917969 44.035156 77.917969 20.710938 C 80.65625 25.109375 83.394531 29.507812 86.132812 33.90625 C 88.914062 38.371094 95.984375 34.269531 93.191406 29.78125 " fill-opacity="1" fill-rule="nonzero"/></svg>