<svg xmlns="http://www.w3.org/2000/svg" xmlns:xlink="http://www.w3.org/1999/xlink" width="128" zoomAndPan="magnify" viewBox="0 0 96 95.999999" height="128" preserveAspectRatio="xMidYMid meet" version="1.0"><defs><g/><clipPath id="1333225d0a"><path d="M 9.253906 9.277344 L 86.558594 9.277344 L 86.558594 86.582031 L 9.253906 86.582031 Z M 9.253906 9.277344 " clip-rule="nonzero"/></clipPath><clipPath id="b568d1a2c8"><path d="M 47.90625 9.277344 C 26.558594 9.277344 9.253906 26.582031 9.253906 47.929688 C 9.253906 69.277344 26.558594 86.582031 47.90625 86.582031 C 69.253906 86.582031 86.558594 69.277344 86.558594 47.929688 C 86.558594 26.582031 69.253906 9.277344 47.90625 9.277344 Z M 47.90625 9.277344 " clip-rule="nonzero"/></clipPath><clipPath id="fe744a25a9"><path d="M 0.367188 0.390625 L 95.519531 0.390625 L 95.519531 95.46875 L 0.367188 95.46875 Z M 0.367188 0.390625 " clip-rule="nonzero"/></clipPath></defs><g fill="#05387d" fill-opacity="1"><g transform="translate(21.963727, 77.442689)"><g><path d="M 68.953125 -33.453125 C 68.953125 -28.492188 68.363281 -23.953125 67.1875 -19.828125 C 66.019531 -15.703125 64.21875 -12.132812 61.78125 -9.125 C 59.351562 -6.113281 56.265625 -3.753906 52.515625 -2.046875 L 68.578125 15.875 L 50.46875 15.875 L 38.234375 0.90625 C 38.023438 0.90625 37.84375 0.90625 37.6875 0.90625 C 37.539062 0.90625 37.375 0.90625 37.1875 0.90625 C 31.738281 0.90625 27.019531 0.09375 23.03125 -1.53125 C 19.050781 -3.15625 15.757812 -5.488281 13.15625 -8.53125 C 10.5625 -11.570312 8.625 -15.207031 7.34375 -19.4375 C 6.070312 -23.664062 5.4375 -28.367188 5.4375 -33.546875 C 5.4375 -40.441406 6.566406 -46.453125 8.828125 -51.578125 C 11.097656 -56.710938 14.585938 -60.691406 19.296875 -63.515625 C 24.015625 -66.347656 30.007812 -67.765625 37.28125 -67.765625 C 44.519531 -67.765625 50.472656 -66.347656 55.140625 -63.515625 C 59.816406 -60.691406 63.285156 -56.707031 65.546875 -51.5625 C 67.816406 -46.425781 68.953125 -40.390625 68.953125 -33.453125 Z M 20.265625 -33.453125 C 20.265625 -28.796875 20.847656 -24.785156 22.015625 -21.421875 C 23.191406 -18.054688 25.023438 -15.46875 27.515625 -13.65625 C 30.003906 -11.851562 33.226562 -10.953125 37.1875 -10.953125 C 41.207031 -10.953125 44.460938 -11.851562 46.953125 -13.65625 C 49.453125 -15.46875 51.269531 -18.054688 52.40625 -21.421875 C 53.550781 -24.785156 54.125 -28.796875 54.125 -33.453125 C 54.125 -40.441406 52.8125 -45.941406 50.1875 -49.953125 C 47.570312 -53.972656 43.269531 -55.984375 37.28125 -55.984375 C 33.289062 -55.984375 30.039062 -55.078125 27.53125 -53.265625 C 25.03125 -51.460938 23.191406 -48.878906 22.015625 -45.515625 C 20.847656 -42.148438 20.265625 -38.128906 20.265625 -33.453125 Z M 20.265625 -33.453125 "/></g></g></g><g clip-path="url(#1333225d0a)"><g clip-path="url(#b568d1a2c8)"><path fill="#ffffff" d="M 9.253906 9.277344 L 86.558594 9.277344 L 86.558594 86.582031 L 9.253906 86.582031 Z M 9.253906 9.277344 " fill-opacity="1" fill-rule="nonzero"/></g></g><g clip-path="url(#fe744a25a9)"><path fill="#05387d" d="M 58.898438 48.089844 C 58.898438 54.242188 53.894531 59.25 47.742188 59.25 C 41.589844 59.25 36.585938 54.242188 36.585938 48.089844 C 36.585938 41.9375 41.589844 36.933594 47.742188 36.933594 C 53.894531 36.933594 58.898438 41.9375 58.898438 48.089844 Z M 95.441406 47.929688 C 95.441406 74.140625 74.117188 95.46875 47.90625 95.46875 C 21.691406 95.46875 0.367188 74.140625 0.367188 47.929688 C 0.367188 21.714844 21.691406 0.390625 47.90625 0.390625 C 74.117188 0.390625 95.441406 21.714844 95.441406 47.929688 Z M 85.09375 48.253906 C 85.09375 45.574219 82.921875 43.402344 80.242188 43.402344 L 68.0625 43.402344 C 66.277344 35.660156 60.085938 29.554688 52.324219 27.769531 L 52.324219 15.914062 C 52.324219 13.234375 50.152344 11.0625 47.472656 11.0625 C 44.792969 11.0625 42.625 13.234375 42.625 15.914062 L 42.625 27.84375 C 35.183594 29.726562 29.183594 35.769531 27.421875 43.402344 L 15.566406 43.402344 C 12.886719 43.402344 10.714844 45.574219 10.714844 48.253906 C 10.714844 50.933594 12.886719 53.101562 15.566406 53.101562 L 27.496094 53.101562 C 29.351562 60.585938 35.183594 66.484375 42.625 68.335938 L 42.625 80.269531 C 42.625 82.945312 44.792969 85.121094 47.472656 85.121094 C 50.152344 85.121094 52.324219 82.945312 52.324219 80.269531 L 52.324219 68.410156 C 60.085938 66.648438 66.109375 60.691406 67.988281 53.101562 L 80.242188 53.101562 C 82.921875 53.101562 85.09375 50.933594 85.09375 48.253906 Z M 85.09375 48.253906 " fill-opacity="1" fill-rule="nonzero"/></g></svg>