<svg xmlns="http://www.w3.org/2000/svg" xmlns:xlink="http://www.w3.org/1999/xlink" width="128" zoomAndPan="magnify" viewBox="0 0 96 95.999999" height="128" preserveAspectRatio="xMidYMid meet" version="1.0"><defs><clipPath id="a3fab58dd3"><path d="M 0.113281 29 L 73 29 L 73 86.59375 L 0.113281 86.59375 Z M 0.113281 29 " clip-rule="nonzero"/></clipPath><clipPath id="3b7d19811c"><path d="M 28 9.34375 L 96 9.34375 L 96 67 L 28 67 Z M 28 9.34375 " clip-rule="nonzero"/></clipPath></defs><g clip-path="url(#a3fab58dd3)"><path fill="#a6a6a6" d="M 68.054688 70.910156 C 67.265625 69.867188 65.792969 69.652344 64.738281 70.421875 C 59.960938 73.925781 54.304688 75.777344 48.375 75.777344 C 41.390625 75.777344 34.714844 73.160156 29.574219 68.410156 C 24.785156 63.980469 21.726562 58.082031 20.875 51.683594 L 27.964844 51.679688 C 28.859375 51.679688 29.679688 51.175781 30.085938 50.378906 C 30.492188 49.582031 30.417969 48.625 29.894531 47.898438 L 17.550781 30.8125 C 17.109375 30.199219 16.402344 29.832031 15.644531 29.824219 C 14.886719 29.816406 14.171875 30.167969 13.714844 30.773438 L 0.8125 47.867188 C 0.269531 48.589844 0.179688 49.558594 0.582031 50.367188 C 0.988281 51.175781 1.8125 51.6875 2.71875 51.6875 L 9.953125 51.683594 C 11.820312 71.382812 28.496094 86.65625 48.402344 86.65625 C 56.671875 86.65625 64.570312 84.058594 71.246094 79.144531 C 71.761719 78.765625 72.101562 78.199219 72.191406 77.566406 C 72.285156 76.9375 72.121094 76.296875 71.738281 75.785156 Z M 68.054688 70.910156 " fill-opacity="1" fill-rule="nonzero"/></g><g clip-path="url(#3b7d19811c)"><path fill="#a6a6a6" d="M 95.515625 45.617188 C 95.105469 44.820312 94.285156 44.320312 93.390625 44.320312 L 86.828125 44.316406 C 84.957031 24.617188 68.292969 9.34375 48.375 9.34375 C 42.058594 9.34375 35.753906 10.9375 30.144531 13.949219 C 29.539062 14.273438 29.101562 14.84375 28.949219 15.515625 C 28.792969 16.183594 28.9375 16.890625 29.339844 17.445312 L 32.945312 22.433594 C 33.628906 23.382812 34.902344 23.695312 35.949219 23.167969 C 39.785156 21.238281 44.09375 20.222656 48.410156 20.222656 C 55.394531 20.222656 62.070312 22.835938 67.207031 27.589844 C 71.996094 32.015625 75.050781 37.914062 75.90625 44.3125 L 68.148438 44.308594 C 68.148438 44.308594 68.148438 44.308594 68.144531 44.308594 C 67.242188 44.308594 66.414062 44.820312 66.011719 45.632812 C 65.609375 46.441406 65.699219 47.410156 66.242188 48.132812 L 79.144531 65.222656 C 79.59375 65.820312 80.300781 66.171875 81.046875 66.171875 C 81.054688 66.171875 81.0625 66.171875 81.074219 66.171875 C 81.828125 66.160156 82.539062 65.796875 82.980469 65.183594 L 95.324219 48.101562 C 95.847656 47.375 95.921875 46.417969 95.515625 45.617188 Z M 95.515625 45.617188 " fill-opacity="1" fill-rule="nonzero"/></g></svg>