<svg xmlns="http://www.w3.org/2000/svg" xmlns:xlink="http://www.w3.org/1999/xlink" width="128" zoomAndPan="magnify" viewBox="0 0 96 95.999999" height="128" preserveAspectRatio="xMidYMid meet" version="1.0"><defs><clipPath id="950f4e339d"><path d="M 0 2.28125 L 96 2.28125 L 96 93.78125 L 0 93.78125 Z M 0 2.28125 " clip-rule="nonzero"/></clipPath></defs><g clip-path="url(#950f4e339d)"><path fill="#05387d" d="M 48.125 2.589844 L 62.914062 32.574219 L 96 37.382812 L 72.050781 60.734375 L 77.722656 93.6875 L 48.125 78.128906 L 18.507812 93.6875 L 24.15625 60.734375 L 0.230469 37.382812 L 33.316406 32.574219 Z M 48.125 2.589844 " fill-opacity="1" fill-rule="nonzero"/><path fill="#05387d" d="M 47.894531 2.304688 L 62.703125 32.285156 L 95.789062 37.09375 L 71.84375 60.449219 L 77.492188 93.398438 L 47.894531 77.84375 L 18.296875 93.398438 L 23.949219 60.449219 L 0 37.09375 L 33.085938 32.285156 Z M 47.894531 2.304688 " fill-opacity="1" fill-rule="nonzero"/><path fill="#05387d" d="M 47.894531 2.304688 L 62.703125 32.285156 L 95.789062 37.09375 L 71.84375 60.449219 L 77.492188 93.398438 L 47.894531 77.84375 L 18.296875 93.398438 L 23.949219 60.449219 L 0 37.09375 L 33.085938 32.285156 Z M 47.894531 2.304688 " fill-opacity="1" fill-rule="nonzero"/><path fill="#05387d" d="M 47.894531 2.304688 L 62.703125 32.285156 L 95.789062 37.09375 L 71.84375 60.449219 L 77.492188 93.398438 L 47.894531 77.84375 L 18.296875 93.398438 L 23.949219 60.449219 L 0 37.09375 L 33.085938 32.285156 Z M 47.894531 2.304688 " fill-opacity="1" fill-rule="nonzero"/></g></svg>