<svg xmlns="http://www.w3.org/2000/svg" xmlns:xlink="http://www.w3.org/1999/xlink" width="128" zoomAndPan="magnify" viewBox="0 0 96 95.999999" height="128" preserveAspectRatio="xMidYMid meet" version="1.0"><defs><clipPath id="bfea478fe4"><path d="M 6.421875 0 L 89.671875 0 L 89.671875 96 L 6.421875 96 Z M 6.421875 0 " clip-rule="nonzero"/></clipPath></defs><g clip-path="url(#bfea478fe4)"><path fill="#ff3131" d="M 82.808594 10.394531 L 68.972656 10.394531 L 68.972656 8.417969 C 68.972656 3.785156 65.203125 0.015625 60.570312 0.015625 L 35.320312 0.015625 C 30.6875 0.015625 26.917969 3.785156 26.917969 8.417969 L 26.917969 10.394531 L 13.082031 10.394531 C 9.457031 10.394531 6.507812 13.34375 6.507812 16.96875 L 6.507812 20.085938 C 6.507812 23.476562 9.089844 26.277344 12.394531 26.621094 L 19.164062 86.03125 C 19.808594 91.707031 24.601562 95.984375 30.3125 95.984375 L 65.574219 95.984375 C 71.285156 95.984375 76.082031 91.707031 76.726562 86.03125 L 83.496094 26.621094 C 86.800781 26.277344 89.382812 23.476562 89.382812 20.085938 L 89.382812 16.96875 C 89.382812 13.34375 86.433594 10.394531 82.808594 10.394531 Z M 31.183594 8.417969 C 31.183594 6.136719 33.039062 4.28125 35.320312 4.28125 L 60.570312 4.28125 C 62.851562 4.28125 64.707031 6.136719 64.707031 8.417969 L 64.707031 10.394531 L 31.183594 10.394531 Z M 72.488281 85.546875 C 72.085938 89.066406 69.117188 91.71875 65.578125 91.71875 L 30.316406 91.71875 C 26.777344 91.71875 23.804688 89.066406 23.40625 85.546875 L 16.695312 26.660156 L 79.199219 26.660156 Z M 85.117188 20.085938 C 85.117188 21.355469 84.082031 22.390625 82.808594 22.390625 L 13.082031 22.390625 C 11.808594 22.390625 10.773438 21.355469 10.773438 20.085938 L 10.773438 16.96875 C 10.773438 15.695312 11.808594 14.660156 13.082031 14.660156 L 82.808594 14.660156 C 84.082031 14.660156 85.117188 15.695312 85.117188 16.96875 Z M 85.117188 20.085938 " fill-opacity="1" fill-rule="nonzero"/></g><path fill="#ff3131" d="M 47.945312 80.171875 C 49.121094 80.171875 50.078125 79.214844 50.078125 78.039062 L 50.078125 40.339844 C 50.078125 39.160156 49.121094 38.207031 47.945312 38.207031 C 46.765625 38.207031 45.8125 39.160156 45.8125 40.339844 L 45.8125 78.039062 C 45.8125 79.214844 46.765625 80.171875 47.945312 80.171875 Z M 47.945312 80.171875 " fill-opacity="1" fill-rule="nonzero"/><path fill="#ff3131" d="M 60.699219 80.070312 C 60.769531 80.078125 60.839844 80.082031 60.90625 80.082031 C 61.992188 80.082031 62.921875 79.257812 63.027344 78.15625 L 66.683594 40.632812 C 66.796875 39.460938 65.9375 38.417969 64.765625 38.304688 C 63.578125 38.183594 62.550781 39.046875 62.433594 40.21875 L 58.78125 77.742188 C 58.667969 78.914062 59.523438 79.957031 60.695312 80.070312 Z M 60.699219 80.070312 " fill-opacity="1" fill-rule="nonzero"/><path fill="#ff3131" d="M 34.984375 80.082031 C 35.050781 80.082031 35.121094 80.078125 35.191406 80.070312 C 36.363281 79.957031 37.222656 78.914062 37.109375 77.742188 L 33.453125 40.21875 C 33.339844 39.046875 32.3125 38.183594 31.121094 38.304688 C 29.949219 38.417969 29.09375 39.460938 29.207031 40.632812 L 32.859375 78.15625 C 32.96875 79.257812 33.898438 80.082031 34.980469 80.082031 Z M 34.984375 80.082031 " fill-opacity="1" fill-rule="nonzero"/></svg>